<svg width="70" height="58" viewBox="0 0 70 58" fill="none" xmlns="http://www.w3.org/2000/svg">
<g clip-path="url(#clip0_33_1736)">
<path d="M3.91454 0L65.6227 0.0162444C65.632 1.2833 65.6052 2.55801 65.6662 3.82507C63.2486 4.13371 60.6388 3.96362 58.1954 3.95502L45.9878 3.91393C32.6458 3.91393 19.2418 4.13371 5.90917 3.8738C5.38182 3.89005 4.48532 3.79258 4.12445 4.13371C4.20303 12.597 4.36124 21.0928 4.22165 29.5561L4.16064 54.3125H48.9326C52.3346 54.3125 63.2497 53.9141 65.5442 54.4501L65.7199 53.7354C66.238 49.6819 65.843 43.6715 65.843 39.4566C65.843 29.9699 65.905 20.4583 65.7809 10.9716C65.8513 8.6248 65.7985 6.26841 65.8068 3.92158L69.9553 3.93782L69.9987 54.7177C68.7331 54.7091 66.7643 54.474 65.63 54.9365L65.6041 57.9981L0.0731616 57.9513C-0.0933155 50.219 0.0731616 42.4456 0.0824678 34.7056L0.0473111 3.55751C1.17232 3.54127 2.3935 3.82602 3.46578 3.46865C4.05414 2.94023 3.94867 2.66407 4.02829 1.92543C3.92282 1.26706 3.88766 0.666019 3.92282 0.00095555H3.91454V0Z" fill="#212121"/>
<path d="M8.00227 29.4998L65.6944 29.646L65.6592 45.102C65.6592 47.961 65.501 50.9012 65.7212 53.744L65.5455 54.4587C63.251 53.9313 52.3358 54.3288 48.9339 54.3288H4.16089L4.2219 29.5647C5.48754 29.5647 6.74387 29.5647 8.00124 29.4998H8.00227Z" fill="#FDFDFD"/>
<path d="M27.8916 34.6731H41.3649C41.3825 36.3463 41.3649 38.0357 41.3297 39.7251C36.8473 39.7576 32.3648 39.7652 27.8823 39.7251C27.9702 38.0357 27.9444 36.3625 27.8999 34.6731H27.8906H27.8916Z" fill="#424242"/>
<path d="M27.8564 44.5258L41.3825 44.4933V49.6026C36.8741 49.6351 32.3648 49.6351 27.8564 49.6026V44.5267V44.5258Z" fill="#424242"/>
<path d="M9.01242 44.5822H23.1278V49.5692L9.08274 49.5529C9.06516 47.896 9.03931 46.2391 9.00415 44.5908L9.01242 44.5822Z" fill="#424242"/>
<path d="M9.08282 34.6817C13.7587 34.7381 18.4438 34.6817 23.1279 34.6817V39.6611C18.4696 39.8073 13.7669 39.6773 9.10867 39.6687L9.09109 34.6817H9.08179H9.08282Z" fill="#424242"/>
<path d="M46.1824 34.6731C50.9285 34.7218 55.684 34.6807 60.4384 34.6807C60.4384 35.8102 60.8075 38.9119 60.184 39.7404C55.5165 39.8054 50.8417 39.7404 46.1834 39.7404C46.2268 38.051 46.1834 36.3616 46.1834 34.6721L46.1824 34.6731Z" fill="#424242"/>
<path d="M46.2175 44.4035C50.9461 44.4761 55.6922 44.4035 60.4301 44.4035V49.5204H46.2175V44.4035Z" fill="#424242"/>
<path d="M65.6674 3.82507L65.8081 3.93018C65.8081 6.27797 65.8525 8.6334 65.7822 10.9802C65.9053 20.4669 65.8443 29.9775 65.8443 39.4642C65.8443 43.6792 66.231 49.6896 65.7212 53.743C65.5103 50.8926 65.6592 47.9524 65.6592 45.101L65.6943 29.645L8.00227 29.4988C6.73663 29.5638 5.48857 29.5714 4.22293 29.5638C4.36356 21.1005 4.20535 12.6047 4.12573 4.14136C4.48661 3.80023 5.3831 3.8977 5.90942 3.88145C19.2514 4.14136 32.646 3.91394 45.988 3.92158L58.1956 3.96267C60.639 3.97127 63.2499 4.14136 65.6664 3.83272V3.82507H65.6674Z" fill="#9E9E9E"/>
<path d="M8.00116 13H16.9472C17.0063 15.9815 17.0156 18.9721 16.9761 21.9617C13.9914 21.9462 11.016 21.9617 8.03014 22L8 13H8.00116Z" fill="#212121"/>
<path d="M21 13H30V22C27.0128 21.9225 24.007 21.9763 21.0104 21.9763V13H21Z" fill="#212121"/>
<path d="M33.002 13H42L41.9716 21.9845L33.0327 22C32.9747 19.0055 33.0134 15.9945 33.0043 13H33.002Z" fill="#212121"/>
<path d="M46 13.0156L55 13V21.9844L46 22V13.0146V13.0156Z" fill="#212121"/>
<path d="M65.6147 25.3985C65.6147 20.6791 65.2373 15.6519 65.7812 10.9735C65.9042 20.4602 65.8432 29.9718 65.8432 39.4585C65.8432 43.6734 66.2299 49.6838 65.7202 53.7373C65.5092 50.8869 65.6581 47.9457 65.6581 45.0953L65.6933 29.6383L8.00122 29.4921C10.0579 28.7688 23.8124 29.2074 27.1089 29.2733V25.7483C20.9916 25.7483 14.8568 25.8295 8.73951 25.6995C14.6376 25.237 21.1498 25.5533 27.1182 25.5132C39.9503 25.4071 52.7825 25.367 65.624 25.3995H65.6147V25.3985Z" fill="#9E9E9E"/>
</g>
<defs>
<clipPath id="clip0_33_1736">
<rect width="70" height="58" fill="white"/>
</clipPath>
</defs>
</svg>
