<svg width="75" height="117" viewBox="0 0 75 117" fill="none" xmlns="http://www.w3.org/2000/svg">
<path d="M10.7009 63.819V53.181H21.4103V31.9052H32.1197V10.6379H42.8462V31.9137H53.5556V53.1895H64.265V63.8274H53.5556V85.0948H42.8462V106.371H32.1197V85.0948H21.4103V63.8274H10.7009V63.819ZM5.35043 63.819C8.31152 63.819 10.7094 66.2008 10.7094 69.1421V85.0863C16.6316 85.0863 21.4273 89.85 21.4273 95.7327V106.362H26.7778C29.7389 106.362 32.1368 108.744 32.1368 111.685V117H42.8547V111.685C42.8547 108.744 45.2526 106.362 48.2137 106.362H53.5727V95.7327C53.5727 89.8585 58.3684 85.0863 64.2906 85.0863V69.1421C64.2906 66.2008 66.697 63.819 69.6495 63.819H75V53.181H69.6495C66.6885 53.181 64.2906 50.7992 64.2906 47.8579V31.9052C58.377 31.9052 53.5727 27.1415 53.5727 21.2589V10.6379H48.2137C45.2526 10.6379 42.8547 8.25603 42.8547 5.31471V0H32.1453V5.31471C32.1453 8.25603 29.7389 10.6379 26.7778 10.6379H21.4273V21.2673C21.4273 27.1415 16.6316 31.9137 10.7094 31.9137V47.8663C10.7094 50.8077 8.30298 53.1895 5.35043 53.1895H0V63.8274H5.35043V63.819Z" fill="#3952FF"/>
</svg>
