<svg width="62" height="149" viewBox="0 0 62 149" fill="none" xmlns="http://www.w3.org/2000/svg">
<g clip-path="url(#clip0_294_220)">
<path d="M38.7516 110.507V118.203H23.2484V110.507H15.5032V102.824H23.2484V110.52H38.7516V102.824H46.4968V110.507H38.7516ZM54.2548 125.899V118.203H46.5096C46.5096 113.981 49.942 110.558 54.1782 110.507H54.2548V102.812H46.5096C46.5096 98.5642 49.993 95.1156 54.2675 95.1156V87.4196H46.5223V95.1156H38.7771V102.812H23.2739V95.1156H15.5287V87.4196H7.74522V95.1156C12.0198 95.1156 15.4904 98.5515 15.5032 102.812H7.74522V110.507H7.83453C12.0708 110.558 15.4904 113.981 15.5032 118.203H7.74522V125.899H0V149H7.74522V133.608C7.74522 129.348 11.2159 125.899 15.5032 125.899V118.216H23.2484V125.912H38.7516V118.216H46.4968V125.912C50.7841 125.912 54.2548 129.361 54.2548 133.621V149.013H62V125.912H54.2548V125.899Z" fill="black"/>
<path d="M38.7517 87.4196H23.2485V95.1156H38.7517V87.4196Z" fill="black"/>
<path d="M15.5031 56.6357H23.2483V64.3317H38.7515V56.6357H46.4967V64.3317H38.7515V72.0276H23.2483V64.3317H15.5031V56.6484V56.6357ZM15.5031 41.2311H23.2483V48.9271H38.7515V41.2311H46.4967V48.9271H38.7515V56.623H23.2483V48.9271H15.5031V41.2311ZM15.5031 25.8265H23.2483V33.5225H38.7515V25.8265H46.4967V33.5225H38.7515V41.2184H23.2483V33.5225H15.5031V25.8265ZM23.2483 87.4069V79.7109H15.5031V72.0276H23.2483V79.7236H38.7515V72.0276H46.4967V79.7236H38.7515V87.4196H46.4967C46.4967 83.1722 49.9674 79.7236 54.2547 79.7236V72.0276H46.5095C46.5095 67.7803 49.9929 64.3317 54.2674 64.3317V56.6357H46.5222C46.5222 52.3884 50.0057 48.9397 54.2802 48.9397V41.2438H46.535C46.535 36.9964 50.0057 33.5478 54.293 33.5478V25.8518H46.5478V18.1559H38.8025V25.8518H23.2993V18.1559H15.5541V25.8518H7.74512V33.5478C12.0324 33.5478 15.5031 36.9964 15.5031 41.2438H7.74512V48.9397C12.0197 48.9397 15.4903 52.3757 15.5031 56.6357H7.74512V64.3317C12.0197 64.3317 15.4903 67.7676 15.5031 72.0276H7.74512V79.7236C12.0324 79.7236 15.5031 83.1722 15.5031 87.4323H23.2483V87.4069Z" fill="black"/>
<path d="M38.7517 18.1179V10.4219H34.4899V0H27.4976V10.4219H23.2485V18.1179H30.9938H38.7517Z" fill="black"/>
</g>
<defs>
<clipPath id="clip0_294_220">
<rect width="62" height="149" fill="white"/>
</clipPath>
</defs>
</svg>
