<svg width="51" height="67" viewBox="0 0 51 67" fill="none" xmlns="http://www.w3.org/2000/svg">
<g clip-path="url(#clip0_33_1709)">
<path d="M15.1558 49.8984C16.2053 49.7149 17.4186 49.7834 18.4928 49.7613V49.9139C18.3224 51.1411 18.3605 52.3838 18.3537 53.6177L15.2186 53.5248L15.1647 49.8984H15.158H15.1558Z" fill="#212121"/>
<path d="M12.6596 45.9492L18.3603 45.9182C18.3603 47.183 18.2976 48.5098 18.4927 49.7591C17.4274 49.7812 16.2052 49.7127 15.1556 49.8962C14.2922 49.9426 13.4131 49.8807 12.543 49.8431C12.6125 48.5474 12.6215 47.2427 12.6529 45.947H12.6596V45.9492Z" fill="#424242"/>
<path d="M46.6376 17.7362L50.4321 17.7583V27.3815C50.4388 29.0002 50.6183 30.8775 50.3155 32.4497L50.1137 32.5801C48.9699 32.4961 47.797 32.558 46.6533 32.5801C46.669 27.6336 46.66 22.6805 46.6309 17.734H46.6376V17.7362Z" fill="#212121"/>
<path d="M0.0739482 18.1276L3.40201 18.0966C4.00079 20.3521 3.55002 27.0919 3.5119 29.8227H6.45871L6.39591 36.096H3.31903C3.30333 34.0108 3.31903 31.9079 3.35715 29.8072H0.0290956C-0.0404258 25.9266 0.0358235 22.0237 0.0672203 18.1276H0.0739482Z" fill="#212121"/>
<path d="M18.4771 0.00663366H34.1643C34.1643 1.29578 34.0544 2.68221 34.2114 3.95587L34.032 4.13277C33.052 3.47383 20.6637 3.87185 18.5309 3.93376L18.4614 3.91165L18.4839 0L18.4771 0.00663366Z" fill="#212121"/>
<path d="M31.0672 49.8608C33.0273 49.569 37.4363 49.6773 39.3963 50.0068C38.3154 50.1284 37.2412 50.1218 36.1602 50.1218C36.1445 51.349 36.1445 52.5828 36.1131 53.8189L32.9779 53.8963V57.1866L30.4886 57.2087L30.4729 60.9899L27.3691 60.9744C27.3691 62.9844 27.4005 61.4922 27.3691 63.5022H24.0859V60.8528L20.9821 60.8749L20.9664 56.7643H18.3291L18.3515 53.6133C18.3583 52.3794 18.3201 51.1279 18.4995 49.9095C22.5901 50.0311 27.0013 50.2168 31.0672 49.8564L31.0605 49.863L31.0672 49.8608Z" fill="#212121"/>
<path d="M34.2023 3.95586C35.8193 3.84088 37.4385 3.86299 39.0554 3.87847V7.25943C40.3696 7.2528 41.7376 7.16656 43.0383 7.36778L43.0607 10.574H46.5458C46.8104 12.898 46.64 15.3901 46.64 17.7362C46.6714 22.6827 46.6781 27.6358 46.6624 32.5823C47.8061 32.5669 48.979 32.4983 50.1228 32.5823C48.9633 32.6973 47.8285 32.7283 46.6624 32.7438C46.6624 35.0589 46.9965 39.0546 46.5615 41.1796H46.2587C45.1307 41.341 44.0183 41.3255 42.8836 41.3255C42.8768 42.3537 42.906 43.4107 42.8297 44.4389C42.814 45.0603 42.915 45.3588 42.5023 45.8497C41.6479 46.1415 40.6275 45.8497 39.7259 45.8275L39.4456 46.0354L39.3985 50.0156C37.4317 49.6861 33.0294 49.5711 31.0694 49.8697C27.0013 50.2301 22.5923 50.0377 18.5017 49.9227V49.7702C18.3066 48.5208 18.3694 47.1941 18.3627 45.9293L12.6619 45.9602L12.5677 45.8828C11.5339 45.8364 10.5606 45.8828 9.52671 45.9823C9.34058 44.4566 9.44822 42.8623 9.46392 41.3277L6.25248 41.2968C6.21435 39.6781 6.13586 37.96 6.37582 36.3591L6.39825 36.0982L6.46104 29.8183H3.51199C3.54339 27.0963 3.99415 20.3565 3.4021 18.101L3.46489 18.0082C3.75195 15.7306 3.55011 13.2452 3.53441 10.9389C4.71628 10.7554 5.92954 10.9544 7.1271 10.7399L7.1114 7.38105C8.33139 7.18867 9.73304 7.31913 10.9777 7.33461C10.962 6.20025 10.9553 5.08801 11.0562 3.96029L18.4299 3.9227L18.4995 3.94481C20.6389 3.88289 33.0205 3.48487 34.0005 4.14382L34.1799 3.96692L34.2023 3.96029V3.95586Z" fill="#9E9E9E"/>
<path d="M31.325 14.3553L34.8796 14.3707C34.8796 15.4365 34.9334 16.5554 34.8325 17.6146C33.6506 17.5372 32.4687 17.4687 31.2869 17.4067C31.2869 16.3874 31.2936 15.368 31.325 14.3553Z" fill="#212121"/>
<path d="M7.12036 7.37665C8.45024 7.51374 9.78012 7.485 11.119 7.47615V10.605C9.82049 10.6271 8.41211 10.5431 7.13606 10.7355L7.12036 7.37665Z" fill="#212121"/>
<path d="M39.8178 41.3631L42.7422 41.3476C42.7265 42.3825 42.7646 43.4107 42.8274 44.4455C42.8117 45.0669 42.9126 45.3654 42.5 45.8563C41.6456 46.1482 40.6252 45.8563 39.7236 45.8342C39.8402 44.3549 39.8089 42.8513 39.8178 41.3719V41.3653V41.3631Z" fill="#212121"/>
<path d="M9.64103 41.3631L12.6596 41.3786C12.6596 42.8137 12.8233 44.4765 12.5654 45.8718C11.5316 45.8253 10.5583 45.8718 9.52441 45.9713C9.65673 44.4367 9.64103 42.8955 9.64103 41.3631Z" fill="#212121"/>
<path d="M31.0828 29.9001C32.3432 29.9377 33.6035 29.9466 34.8616 29.9311L34.7517 33.8427L31.0963 33.8273L31.0806 29.8935V29.9001H31.0828Z" fill="#212121"/>
<path d="M22.5294 29.8913L22.5137 33.542L22.3814 33.7499C21.278 34.0484 19.7844 33.8803 18.625 33.8715L18.6025 29.9532C19.9167 29.9687 21.2242 29.9532 22.5384 29.9001L22.5316 29.8935L22.5294 29.8913Z" fill="#424242"/>
<path d="M6.40499 36.096H9.62541L9.59401 41.1575H6.41397C6.41397 39.5543 6.46779 37.9357 6.38257 36.3503L6.40499 36.0894V36.096Z" fill="#212121"/>
<path d="M34.2023 3.95587C35.8193 3.84089 37.4384 3.863 39.0554 3.87848V7.25944L33.931 7.27491C33.9153 6.22458 33.9467 5.18973 34.0162 4.1394L34.1956 3.9625L34.2023 3.95587Z" fill="#212121"/>
<path d="M3.54344 10.9345C4.69391 11.0649 5.83092 11.0428 6.98812 11.0273L6.92533 17.9684L3.47168 18.006C3.75874 15.7284 3.5569 13.243 3.5412 10.9367L3.54344 10.9345Z" fill="#212121"/>
<path d="M11.0719 3.96471L18.4457 3.92712L18.5152 3.94924C18.4995 5.06148 18.4681 6.17372 18.4771 7.27712L11.1594 7.30808C11.1594 6.22016 11.2289 5.03716 11.0652 3.96471H11.0719Z" fill="#212121"/>
<path d="M22.5047 10.4745L31.1075 10.5055V13.8179C28.6181 13.725 26.1221 13.6963 23.6418 13.9019C23.3704 13.871 22.8725 13.9086 22.7088 13.6875C22.1728 12.9445 22.5227 11.3568 22.498 10.4745H22.5047Z" fill="#212121"/>
<path d="M43.0135 32.9737L46.4828 32.9273C46.4672 35.5498 46.1487 38.6256 46.5681 41.1862H46.2653C45.153 41.1641 44.0496 41.1486 42.9373 41.1641C43.0696 38.4332 43.0314 35.7046 43.0157 32.9737H43.0135Z" fill="#212121"/>
<path d="M22.5744 33.7875C25.4046 33.9334 28.2684 33.8494 31.0986 33.8339L31.0829 37.3144C28.2281 37.3608 25.3822 37.3608 22.5273 37.321C22.4959 36.1402 22.4264 34.9594 22.5654 33.7852H22.5722L22.5744 33.7875Z" fill="#212121"/>
<path d="M31.0829 46.0177L39.4524 46.0332L39.4053 50.0134C37.4385 49.6839 33.0362 49.569 31.0762 49.8675L31.0919 46.0266L31.0851 46.0199L31.0829 46.0177Z" fill="#424242"/>
<path d="M39.2259 7.37665C40.493 7.39876 41.769 7.39876 43.0361 7.37665L43.0585 10.5829H46.5436C46.2565 12.7986 46.4427 15.1911 46.4494 17.4222L42.9419 17.4067C42.9105 15.1447 42.9195 12.8892 42.9643 10.6271L39.255 10.6426L39.2236 7.38328V7.37665H39.2259Z" fill="#212121"/>
<path d="M34.9873 17.7826C36.2948 17.7296 37.5932 17.7207 38.8984 17.7451C38.7975 21.7319 38.9612 25.7519 38.7886 29.7299C37.7861 29.7454 35.927 29.9908 35.0479 29.6083C35.086 25.6811 35.2026 21.6943 34.994 17.7826H34.9873Z" fill="#424242"/>
<path d="M14.5636 17.7672L18.5689 17.7296V29.7852C17.2458 29.7321 15.8935 29.763 14.5569 29.7542V17.7694H14.5636V17.7672Z" fill="#212121"/>
<path d="M23.6484 13.902C26.122 13.6941 28.6181 13.7251 31.1074 13.8179L31.3249 14.3553C31.2935 15.3746 31.2868 16.3874 31.2868 17.4067C32.4686 17.4687 33.6505 17.5372 34.8324 17.6146L34.9961 17.776C35.2069 21.6943 35.0903 25.6811 35.0499 29.6016C33.9219 30.0461 32.3049 29.7166 31.0827 29.8935L31.0984 33.8273C28.2592 33.8427 25.4044 33.9201 22.5742 33.7808L22.5114 33.5354L22.5271 29.8847C21.251 29.7166 19.8584 29.7918 18.5688 29.7763V17.7207L18.663 17.5903C18.524 16.5709 18.6092 15.4343 18.6092 14.3995C19.8382 14.3995 21.1299 14.4924 22.3275 14.2159C22.6863 13.986 23.2133 13.9705 23.6417 13.8931L23.6484 13.8997V13.902Z" fill="white"/>
<path d="M18.6159 14.4083C19.8449 14.4083 21.1366 14.5012 22.3342 14.2248L22.3566 17.5682C21.1277 17.5682 19.892 17.546 18.6698 17.5991C18.5307 16.5797 18.6159 15.4432 18.6159 14.4083Z" fill="#212121"/>
</g>
<defs>
<clipPath id="clip0_33_1709">
<rect width="50.4928" height="67" fill="white"/>
</clipPath>
</defs>
</svg>
