<svg width="135" height="68" viewBox="0 0 135 68" fill="none" xmlns="http://www.w3.org/2000/svg">
<g clip-path="url(#clip0_294_226)">
<path d="M67.4196 15.1236V22.6791H59.9148V30.2222H67.4196V37.7902H59.9148V45.3333H67.4196V52.8889H67.4073L59.9148 52.8764V60.4195L52.41 60.432V52.8764H44.9176V60.432H14.9973V52.8764H22.4897V37.7902H29.9574V30.2222H37.4622V22.6791V15.1236H37.4746L44.967 15.1111V7.55556H52.4471H59.8901H59.9025V15.0987H67.3949L67.4196 15.1236ZM7.50481 60.4444C7.59135 60.4444 7.66554 60.4444 7.75208 60.4444H7.50481ZM134.53 60.432C130.574 60.2328 127.421 56.9592 127.396 52.9387V52.9013C123.267 52.9013 119.929 49.5405 119.904 45.3831V45.3458C115.774 45.3458 112.436 41.985 112.411 37.8276V37.7902H104.919V52.8889H112.411V60.432H104.907V52.8889H97.4141V60.432H82.4169V52.864H84.1973H89.9093V45.3209H97.4018V37.7778H89.9093V30.2347H84.1849H82.4045V22.6916H82.4169C78.275 22.6791 74.9121 19.2934 74.9121 15.1236H74.9244C70.7826 15.1236 67.4196 11.7379 67.4196 7.568C63.5621 7.568 60.3846 4.63042 59.9643 0.846421V0H59.9148H59.9272H44.9918V0.136921C44.9176 4.24455 41.5917 7.568 37.4869 7.568C37.4869 7.568 37.4869 7.77961 37.4746 8.11569V7.568C37.4746 11.7379 34.1116 15.1236 29.9698 15.1236H29.9821V22.6667V22.7289C29.945 26.849 26.6316 30.1849 22.5268 30.2098H22.4897C22.4897 30.2098 22.4897 30.2098 22.4773 30.2098H22.4897V30.2471C22.465 34.417 19.1268 37.7778 15.0096 37.7778H14.9973V45.3084C14.9973 45.3084 14.9973 45.3707 14.9973 45.4827V45.296C14.9973 49.4659 11.6467 52.8391 7.50481 52.8515V52.9262C7.45535 57.0588 4.11713 60.3947 0 60.3947H0.0123638V67.9502H7.50481V60.4195C11.6467 60.4195 14.9973 63.8052 14.9973 67.9751H119.904C119.904 63.8052 123.267 60.432 127.409 60.432H127.508V67.9627H135V60.4195H134.518L134.53 60.432Z" fill="black"/>
</g>
<defs>
<clipPath id="clip0_294_226">
<rect width="135" height="68" fill="white"/>
</clipPath>
</defs>
</svg>
