<svg width="69" height="57" viewBox="0 0 69 57" fill="none" xmlns="http://www.w3.org/2000/svg">
<g clip-path="url(#clip0_293_6)">
<rect x="16.9844" y="36.6429" width="36.0923" height="18.3214" fill="white"/>
<path d="M32.9995 0H35.9993V2.84978H32.9995V0Z" fill="#212121"/>
<path d="M35.999 0H38.9988V2.84978H35.999V0Z" fill="#212121"/>
<path d="M32.9995 2.84979H35.9993V5.69957H32.9995V2.84979Z" fill="#212121"/>
<path d="M35.999 2.84979H38.9988V5.69957H35.999V2.84979Z" fill="#212121"/>
<path d="M39.0005 2.84979H42.0003V5.69957H39.0005V2.84979Z" fill="#212121"/>
<path d="M42.0005 2.84979H45.0003V5.69957H42.0005V2.84979Z" fill="#212121"/>
<path d="M32.9995 5.69955H35.9993V8.54933H32.9995V5.69955Z" fill="#212121"/>
<path d="M35.999 5.69955H38.9988V8.54933H35.999V5.69955Z" fill="#212121"/>
<path d="M26.9995 14.2504H29.9993V17.1001H26.9995V14.2504Z" fill="#212121"/>
<path d="M24 17.1002H26.9998V19.9499H24V17.1002Z" fill="#212121"/>
<path d="M21 19.9499H23.9998V22.7997H21V19.9499Z" fill="#212121"/>
<path d="M24 19.9499H26.9998V22.7997H24V19.9499Z" fill="#9E9E9E"/>
<path d="M18.0005 22.7997H21.0003V25.6495H18.0005V22.7997Z" fill="#212121"/>
<path d="M21 22.7997H23.9998V25.6495H21V22.7997Z" fill="#9E9E9E"/>
<path d="M15.0005 25.6495H18.0003V28.4993H15.0005V25.6495Z" fill="#212121"/>
<path d="M18.0005 25.6495H21.0003V28.4993H18.0005V25.6495Z" fill="#9E9E9E"/>
<path d="M21 25.6495H23.9998V28.4993H21V25.6495Z" fill="#9E9E9E"/>
<path d="M12.001 28.4993H15.0008V31.349H12.001V28.4993Z" fill="#212121"/>
<path d="M15.0005 28.4993H18.0003V31.349H15.0005V28.4993Z" fill="#212121"/>
<path d="M18.0005 28.4993H21.0003V31.349H18.0005V28.4993Z" fill="#212121"/>
<path d="M32.9995 11.4006H35.9993V14.2504H32.9995V11.4006Z" fill="#212121"/>
<path d="M32.9995 14.2504H35.9993V17.1001H32.9995V14.2504Z" fill="#9E9E9E"/>
<path d="M29.9995 17.1002H32.9993V19.9499H29.9995V17.1002Z" fill="#9E9E9E"/>
<path d="M32.9995 17.1002H35.9993V19.9499H32.9995V17.1002Z" fill="#9E9E9E"/>
<path d="M35.999 17.1002H38.9988V19.9499H35.999V17.1002Z" fill="#9E9E9E"/>
<path d="M29.9995 19.9499H32.9993V22.7997H29.9995V19.9499Z" fill="#9E9E9E"/>
<path d="M32.9995 19.9499H35.9993V22.7997H32.9995V19.9499Z" fill="#9E9E9E"/>
<path d="M35.999 19.9499H38.9988V22.7997H35.999V19.9499Z" fill="#9E9E9E"/>
<path d="M26.9995 22.7997H29.9993V25.6495H26.9995V22.7997Z" fill="#9E9E9E"/>
<path d="M29.9995 22.7997H32.9993V25.6495H29.9995V22.7997Z" fill="#9E9E9E"/>
<path d="M32.9995 22.7997H35.9993V25.6495H32.9995V22.7997Z" fill="#9E9E9E"/>
<path d="M35.999 22.7997H38.9988V25.6495H35.999V22.7997Z" fill="#9E9E9E"/>
<path d="M39.0005 22.7997H42.0003V25.6495H39.0005V22.7997Z" fill="#9E9E9E"/>
<path d="M26.9995 25.6495H29.9993V28.4993H26.9995V25.6495Z" fill="#9E9E9E"/>
<path d="M29.9995 25.6495H32.9993V28.4993H29.9995V25.6495Z" fill="#9E9E9E"/>
<path d="M32.9995 25.6495H35.9993V28.4993H32.9995V25.6495Z" fill="#9E9E9E"/>
<path d="M35.999 25.6495H38.9988V28.4993H35.999V25.6495Z" fill="#9E9E9E"/>
<path d="M39.0005 25.6495H42.0003V28.4993H39.0005V25.6495Z" fill="#9E9E9E"/>
<path d="M24 28.4993H26.9998V31.349H24V28.4993Z" fill="#212121"/>
<path d="M26.9995 28.4993H29.9993V31.349H26.9995V28.4993Z" fill="#212121"/>
<path d="M29.9995 28.4993H32.9993V31.349H29.9995V28.4993Z" fill="#212121"/>
<path d="M32.9995 28.4993H35.9993V31.349H32.9995V28.4993Z" fill="#212121"/>
<path d="M35.999 28.4993H38.9988V31.349H35.999V28.4993Z" fill="#212121"/>
<path d="M39.0005 28.4993H42.0003V31.349H39.0005V28.4993Z" fill="#212121"/>
<path d="M42.0005 28.4993H45.0003V31.349H42.0005V28.4993Z" fill="#212121"/>
<path d="M5.99951 45.5994H8.99931V48.4492H5.99951V45.5994Z" fill="#212121"/>
<path d="M8.99951 45.5994H11.9993V48.4492H8.99951V45.5994Z" fill="#9E9E9E"/>
<path d="M11.999 45.5994H14.9988V48.4492H11.999V45.5994Z" fill="#9E9E9E"/>
<path d="M15.0005 45.5994H18.0003V48.4492H15.0005V45.5994Z" fill="#9E9E9E"/>
<path d="M18.0005 45.5994H21.0003V48.4492H18.0005V45.5994Z" fill="#9E9E9E"/>
<path d="M21 45.5994H23.9998V48.4492H21V45.5994Z" fill="#212121"/>
<path d="M24 45.5994H26.9998V48.4492H24V45.5994Z" fill="#212121"/>
<path d="M5.99951 48.4492H8.99931V51.299H5.99951V48.4492Z" fill="#212121"/>
<path d="M8.99951 48.4492H11.9993V51.299H8.99951V48.4492Z" fill="#9E9E9E"/>
<path d="M11.999 48.4492H14.9988V51.299H11.999V48.4492Z" fill="#9E9E9E"/>
<path d="M15.0005 48.4492H18.0003V51.299H15.0005V48.4492Z" fill="#212121"/>
<path d="M18.0005 48.4492H21.0003V51.299H18.0005V48.4492Z" fill="#212121"/>
<path d="M21 48.4492H23.9998V51.299H21V48.4492Z" fill="#212121"/>
<path d="M5.99951 51.299H8.99931V54.1488H5.99951V51.299Z" fill="#212121"/>
<path d="M8.99951 51.299H11.9993V54.1488H8.99951V51.299Z" fill="#9E9E9E"/>
<path d="M11.999 51.299H14.9988V54.1488H11.999V51.299Z" fill="#9E9E9E"/>
<path d="M15.0005 51.299H18.0003V54.1488H15.0005V51.299Z" fill="#212121"/>
<path d="M0 54.1487H2.9998V56.9985H0V54.1487Z" fill="#212121"/>
<path d="M3 54.1487H5.9998V56.9985H3V54.1487Z" fill="#212121"/>
<path d="M5.99951 54.1487H8.99931V56.9985H5.99951V54.1487Z" fill="#212121"/>
<path d="M8.99951 54.1487H11.9993V56.9985H8.99951V54.1487Z" fill="#212121"/>
<path d="M11.999 54.1487H14.9988V56.9985H11.999V54.1487Z" fill="#212121"/>
<path d="M15.0005 54.1487H18.0003V56.9985H15.0005V54.1487Z" fill="#212121"/>
<path d="M18.0005 54.1487H21.0003V56.9985H18.0005V54.1487Z" fill="#212121"/>
<path d="M21 54.1487H23.9998V56.9985H21V54.1487Z" fill="#212121"/>
<path d="M24 54.1487H26.9998V56.9985H24V54.1487Z" fill="#212121"/>
<path d="M26.9995 54.1487H29.9993V56.9985H26.9995V54.1487Z" fill="#212121"/>
<path d="M29.9995 54.1487H32.9993V56.9985H29.9995V54.1487Z" fill="#212121"/>
<path d="M32.9995 54.1487H35.9993V56.9985H32.9995V54.1487Z" fill="#212121"/>
<path d="M5.99951 34.2003H8.99931V37.0501H5.99951V34.2003Z" fill="#212121"/>
<path d="M8.99951 34.2003H11.9993V37.0501H8.99951V34.2003Z" fill="#212121"/>
<path d="M11.999 34.2003H14.9988V37.0501H11.999V34.2003Z" fill="#212121"/>
<path d="M15.0005 34.2003H18.0003V37.0501H15.0005V34.2003Z" fill="#212121"/>
<path d="M18.0005 34.2003H21.0003V37.0501H18.0005V34.2003Z" fill="#212121"/>
<path d="M21 34.2003H23.9998V37.0501H21V34.2003Z" fill="#212121"/>
<path d="M24 34.2003H26.9998V37.0501H24V34.2003Z" fill="#212121"/>
<path d="M26.9995 34.2003H29.9993V37.0501H26.9995V34.2003Z" fill="#212121"/>
<path d="M29.9995 34.2003H32.9993V37.0501H29.9995V34.2003Z" fill="#212121"/>
<path d="M5.99951 37.0501H8.99931V39.8999H5.99951V37.0501Z" fill="#212121"/>
<path d="M8.99951 37.0501H11.9993V39.8999H8.99951V37.0501Z" fill="#9E9E9E"/>
<path d="M12.001 37.0501H15.0008V39.8999H12.001V37.0501Z" fill="#9E9E9E"/>
<path d="M15.0005 37.0501H18.0003V39.8999H15.0005V37.0501Z" fill="#9E9E9E"/>
<path d="M18.0005 37.0501H21.0003V39.8999H18.0005V37.0501Z" fill="#9E9E9E"/>
<path d="M21 37.0501H23.9998V39.8999H21V37.0501Z" fill="#9E9E9E"/>
<path d="M24 37.0501H26.9998V39.8999H24V37.0501Z" fill="#9E9E9E"/>
<path d="M26.9995 37.0501H29.9993V39.8999H26.9995V37.0501Z" fill="#9E9E9E"/>
<path d="M29.9995 37.0501H32.9993V39.8999H29.9995V37.0501Z" fill="#212121"/>
<path d="M5.99951 39.8998H8.99931V42.7496H5.99951V39.8998Z" fill="#212121"/>
<path d="M8.99951 39.8998H11.9993V42.7496H8.99951V39.8998Z" fill="#9E9E9E"/>
<path d="M11.999 39.8998H14.9988V42.7496H11.999V39.8998Z" fill="#9E9E9E"/>
<path d="M15.0005 39.8998H18.0003V42.7496H15.0005V39.8998Z" fill="#9E9E9E"/>
<path d="M18.0005 39.8998H21.0003V42.7496H18.0005V39.8998Z" fill="#9E9E9E"/>
<path d="M21 39.8998H23.9998V42.7496H21V39.8998Z" fill="#9E9E9E"/>
<path d="M24 39.8998H26.9998V42.7496H24V39.8998Z" fill="#9E9E9E"/>
<path d="M26.9995 39.8998H29.9993V42.7496H26.9995V39.8998Z" fill="#212121"/>
<path d="M5.99951 42.7496H8.99931V45.5994H5.99951V42.7496Z" fill="#212121"/>
<path d="M8.99951 42.7496H11.9993V45.5994H8.99951V42.7496Z" fill="#9E9E9E"/>
<path d="M11.999 42.7496H14.9988V45.5994H11.999V42.7496Z" fill="#9E9E9E"/>
<path d="M15.0005 42.7496H18.0003V45.5994H15.0005V42.7496Z" fill="#9E9E9E"/>
<path d="M18.0005 42.7496H21.0003V45.5994H18.0005V42.7496Z" fill="#9E9E9E"/>
<path d="M21 42.7496H23.9998V45.5994H21V42.7496Z" fill="#9E9E9E"/>
<path d="M24 42.7496H26.9998V45.5994H24V42.7496Z" fill="#212121"/>
<path d="M26.9995 42.7496H29.9993V45.5994H26.9995V42.7496Z" fill="#212121"/>
<path d="M42.0003 14.2504H39.0005V17.1001H42.0003V14.2504Z" fill="#212121"/>
<path d="M45.0003 17.1002H42.0005V19.9499H45.0003V17.1002Z" fill="#212121"/>
<path d="M47.9998 19.9499H45V22.7997H47.9998V19.9499Z" fill="#212121"/>
<path d="M45.0003 19.9499H42.0005V22.7997H45.0003V19.9499Z" fill="#9E9E9E"/>
<path d="M50.9998 22.7997H48V25.6495H50.9998V22.7997Z" fill="#212121"/>
<path d="M47.9998 22.7997H45V25.6495H47.9998V22.7997Z" fill="#9E9E9E"/>
<path d="M53.9993 25.6495H50.9995V28.4993H53.9993V25.6495Z" fill="#212121"/>
<path d="M50.9998 25.6495H48V28.4993H50.9998V25.6495Z" fill="#9E9E9E"/>
<path d="M47.9998 25.6495H45V28.4993H47.9998V25.6495Z" fill="#9E9E9E"/>
<path d="M56.9993 28.4993H53.9995V31.349H56.9993V28.4993Z" fill="#212121"/>
<path d="M53.9993 28.4993H50.9995V31.349H53.9993V28.4993Z" fill="#212121"/>
<path d="M50.9998 28.4993H48V31.349H50.9998V28.4993Z" fill="#212121"/>
<path d="M62.9988 45.5994H59.999V48.4492H62.9988V45.5994Z" fill="#212121"/>
<path d="M59.9988 45.5994H56.999V48.4492H59.9988V45.5994Z" fill="#9E9E9E"/>
<path d="M56.9993 45.5994H53.9995V48.4492H56.9993V45.5994Z" fill="#9E9E9E"/>
<path d="M53.9993 45.5994H50.9995V48.4492H53.9993V45.5994Z" fill="#9E9E9E"/>
<path d="M50.9998 45.5994H48V48.4492H50.9998V45.5994Z" fill="#9E9E9E"/>
<path d="M47.9998 45.5994H45V48.4492H47.9998V45.5994Z" fill="#212121"/>
<path d="M45.0003 45.5994H42.0005V48.4492H45.0003V45.5994Z" fill="#212121"/>
<path d="M62.9988 48.4492H59.999V51.299H62.9988V48.4492Z" fill="#212121"/>
<path d="M59.9988 48.4492H56.999V51.299H59.9988V48.4492Z" fill="#9E9E9E"/>
<path d="M56.9993 48.4492H53.9995V51.299H56.9993V48.4492Z" fill="#9E9E9E"/>
<path d="M53.9993 48.4492H50.9995V51.299H53.9993V48.4492Z" fill="#212121"/>
<path d="M50.9998 48.4492H48V51.299H50.9998V48.4492Z" fill="#212121"/>
<path d="M47.9998 48.4492H45V51.299H47.9998V48.4492Z" fill="#212121"/>
<path d="M62.9988 51.299H59.999V54.1488H62.9988V51.299Z" fill="#212121"/>
<path d="M59.9988 51.299H56.999V54.1488H59.9988V51.299Z" fill="#9E9E9E"/>
<path d="M56.9993 51.299H53.9995V54.1488H56.9993V51.299Z" fill="#9E9E9E"/>
<path d="M53.9993 51.299H50.9995V54.1488H53.9993V51.299Z" fill="#212121"/>
<path d="M68.9998 54.1487H66V56.9985H68.9998V54.1487Z" fill="#212121"/>
<path d="M65.9988 54.1487H62.999V56.9985H65.9988V54.1487Z" fill="#212121"/>
<path d="M62.9988 54.1487H59.999V56.9985H62.9988V54.1487Z" fill="#212121"/>
<path d="M59.9988 54.1487H56.999V56.9985H59.9988V54.1487Z" fill="#212121"/>
<path d="M56.9993 54.1487H53.9995V56.9985H56.9993V54.1487Z" fill="#212121"/>
<path d="M53.9993 54.1487H50.9995V56.9985H53.9993V54.1487Z" fill="#212121"/>
<path d="M50.9998 54.1487H48V56.9985H50.9998V54.1487Z" fill="#212121"/>
<path d="M47.9998 54.1487H45V56.9985H47.9998V54.1487Z" fill="#212121"/>
<path d="M45.0003 54.1487H42.0005V56.9985H45.0003V54.1487Z" fill="#212121"/>
<path d="M42.0003 54.1487H39.0005V56.9985H42.0003V54.1487Z" fill="#212121"/>
<path d="M39.0003 54.1487H36.0005V56.9985H39.0003V54.1487Z" fill="#212121"/>
<path d="M35.9993 54.1487H32.9995V56.9985H35.9993V54.1487Z" fill="#212121"/>
<path d="M62.9988 34.2003H59.999V37.0501H62.9988V34.2003Z" fill="#212121"/>
<path d="M59.9988 34.2003H56.999V37.0501H59.9988V34.2003Z" fill="#212121"/>
<path d="M56.9993 34.2003H53.9995V37.0501H56.9993V34.2003Z" fill="#212121"/>
<path d="M53.9993 34.2003H50.9995V37.0501H53.9993V34.2003Z" fill="#212121"/>
<path d="M50.9998 34.2003H48V37.0501H50.9998V34.2003Z" fill="#212121"/>
<path d="M47.9998 34.2003H45V37.0501H47.9998V34.2003Z" fill="#212121"/>
<path d="M45.0003 34.2003H42.0005V37.0501H45.0003V34.2003Z" fill="#212121"/>
<path d="M42.0003 34.2003H39.0005V37.0501H42.0003V34.2003Z" fill="#212121"/>
<path d="M39.0003 34.2003H36.0005V37.0501H39.0003V34.2003Z" fill="#212121"/>
<path d="M62.9988 37.0501H59.999V39.8999H62.9988V37.0501Z" fill="#212121"/>
<path d="M59.9988 37.0501H56.999V39.8999H59.9988V37.0501Z" fill="#9E9E9E"/>
<path d="M56.9993 37.0501H53.9995V39.8999H56.9993V37.0501Z" fill="#9E9E9E"/>
<path d="M53.9993 37.0501H50.9995V39.8999H53.9993V37.0501Z" fill="#9E9E9E"/>
<path d="M50.9998 37.0501H48V39.8999H50.9998V37.0501Z" fill="#9E9E9E"/>
<path d="M47.9998 37.0501H45V39.8999H47.9998V37.0501Z" fill="#9E9E9E"/>
<path d="M45.0003 37.0501H42.0005V39.8999H45.0003V37.0501Z" fill="#9E9E9E"/>
<path d="M42.0003 37.0501H39.0005V39.8999H42.0003V37.0501Z" fill="#9E9E9E"/>
<path d="M39.0003 37.0501H36.0005V39.8999H39.0003V37.0501Z" fill="#212121"/>
<path d="M62.9988 39.8998H59.999V42.7496H62.9988V39.8998Z" fill="#212121"/>
<path d="M59.9988 39.8998H56.999V42.7496H59.9988V39.8998Z" fill="#9E9E9E"/>
<path d="M56.9993 39.8998H53.9995V42.7496H56.9993V39.8998Z" fill="#9E9E9E"/>
<path d="M53.9993 39.8998H50.9995V42.7496H53.9993V39.8998Z" fill="#9E9E9E"/>
<path d="M50.9998 39.8998H48V42.7496H50.9998V39.8998Z" fill="#9E9E9E"/>
<path d="M47.9998 39.8998H45V42.7496H47.9998V39.8998Z" fill="#9E9E9E"/>
<path d="M45.0003 39.8998H42.0005V42.7496H45.0003V39.8998Z" fill="#9E9E9E"/>
<path d="M42.0003 39.8998H39.0005V42.7496H42.0003V39.8998Z" fill="#212121"/>
<path d="M62.9988 42.7496H59.999V45.5994H62.9988V42.7496Z" fill="#212121"/>
<path d="M59.9988 42.7496H56.999V45.5994H59.9988V42.7496Z" fill="#9E9E9E"/>
<path d="M56.9993 42.7496H53.9995V45.5994H56.9993V42.7496Z" fill="#9E9E9E"/>
<path d="M53.9993 42.7496H50.9995V45.5994H53.9993V42.7496Z" fill="#9E9E9E"/>
<path d="M50.9998 42.7496H48V45.5994H50.9998V42.7496Z" fill="#9E9E9E"/>
<path d="M47.9998 42.7496H45V45.5994H47.9998V42.7496Z" fill="#9E9E9E"/>
<path d="M45.0003 42.7496H42.0005V45.5994H45.0003V42.7496Z" fill="#212121"/>
<path d="M42.0003 42.7496H39.0005V45.5994H42.0003V42.7496Z" fill="#212121"/>
<path d="M35.9993 34.2003H32.9995V37.0501H35.9993V34.2003Z" fill="#212121"/>
<path d="M32.9993 39.8998H29.9995V42.7496H32.9993V39.8998Z" fill="#212121"/>
<path d="M39.0003 39.8998H36.0005V42.7496H39.0003V39.8998Z" fill="#212121"/>
</g>
<defs>
<clipPath id="clip0_293_6">
<rect width="69" height="57" fill="white"/>
</clipPath>
</defs>
</svg>
