<svg width="60" height="105" viewBox="0 0 60 105" fill="none" xmlns="http://www.w3.org/2000/svg">
<g clip-path="url(#clip0_294_197)">
<path d="M0 69.9232H8.58036V78.7052C8.58036 73.8533 4.74046 69.9232 0 69.9232Z" fill="black"/>
<path d="M17.1482 16.1814V24.9634H8.56787C13.3083 24.9634 17.1482 21.0333 17.1482 16.1814Z" fill="black"/>
<path d="M8.58036 32.1964V40.9784H0C4.74046 40.9784 8.58036 37.0483 8.58036 32.1964Z" fill="black"/>
<path d="M8.56787 87.4616H17.1482V96.2436C17.1482 91.3917 13.3083 87.4616 8.56787 87.4616Z" fill="black"/>
<path d="M42.8641 69.9232H34.2837V78.7052C34.2837 73.8533 38.1236 69.9232 42.8641 69.9232Z" fill="black"/>
<path d="M42.8516 0V8.78201H51.4319C46.6915 8.78201 42.8516 4.85187 42.8516 0Z" fill="black"/>
<path d="M34.284 0V8.78201H25.7036C30.4441 8.78201 34.284 4.85187 34.284 0Z" fill="black"/>
<path d="M51.4319 46.4192H42.8516V55.2012C42.8516 50.3493 46.6915 46.4192 51.4319 46.4192Z" fill="black"/>
<path d="M59.9998 27.8054H51.4194V36.5874C51.4194 31.7356 55.2593 27.8054 59.9998 27.8054Z" fill="black"/>
<path d="M8.56785 40.9784H0V69.9232H8.56785V40.9784Z" fill="black"/>
<path d="M42.8515 46.4192H34.2837V69.9232H42.8515V46.4192Z" fill="black"/>
<path d="M51.4194 27.8182H42.8516V46.432H51.4194V27.8182Z" fill="black"/>
<path d="M17.1484 69.9232H8.58057V87.4616H17.1484V69.9232Z" fill="black"/>
<path d="M17.1484 24.9634H8.58057V40.9912H17.1484V24.9634Z" fill="black"/>
<path d="M34.2842 69.9232H25.7163V87.4616H34.2842V69.9232Z" fill="black"/>
<path d="M25.7036 16.1814H17.1357V25.6547H25.7036V16.1814Z" fill="black"/>
<path d="M59.9873 16.1814H51.4194V27.8182H59.9873V16.1814Z" fill="black"/>
<path d="M51.4194 8.78201H42.8516V16.1814H51.4194V8.78201Z" fill="black"/>
<path d="M34.2842 8.78201H25.7163V16.1814H34.2842V8.78201Z" fill="black"/>
<path d="M42.8515 0H34.2837V8.78201H42.8515V0Z" fill="black"/>
<path d="M25.7163 87.4616H17.1484V105H25.7163V87.4616Z" fill="black"/>
</g>
<defs>
<clipPath id="clip0_294_197">
<rect width="60" height="105" fill="white"/>
</clipPath>
</defs>
</svg>
