<svg width="3116" height="1887" viewBox="0 0 3116 1887" fill="none" xmlns="http://www.w3.org/2000/svg">
<line x1="243.5" x2="243.5" y2="1887" stroke="white" stroke-opacity="0.8"/>
<line x1="1860.5" x2="1860.5" y2="1887" stroke="white" stroke-opacity="0.8"/>
<line x1="537.5" x2="537.5" y2="1887" stroke="white" stroke-opacity="0.8"/>
<line x1="2154.5" x2="2154.5" y2="1887" stroke="white" stroke-opacity="0.8"/>
<line x1="684.5" x2="684.5" y2="1887" stroke="white" stroke-opacity="0.8"/>
<line x1="2301.5" x2="2301.5" y2="1887" stroke="white" stroke-opacity="0.8"/>
<line x1="978.5" x2="978.5" y2="1887" stroke="white" stroke-opacity="0.8"/>
<line x1="2595.5" x2="2595.5" y2="1887" stroke="white" stroke-opacity="0.8"/>
<line x1="1272.5" x2="1272.5" y2="1887" stroke="white" stroke-opacity="0.8"/>
<line x1="2889.5" x2="2889.5" y2="1887" stroke="white" stroke-opacity="0.8"/>
<line x1="1566.5" x2="1566.5" y2="1887" stroke="white" stroke-opacity="0.8"/>
<line x1="390.5" x2="390.5" y2="1887" stroke="white" stroke-opacity="0.8"/>
<line x1="2007.5" x2="2007.5" y2="1887" stroke="white" stroke-opacity="0.8"/>
<line x1="96.5" x2="96.5" y2="1887" stroke="white" stroke-opacity="0.8"/>
<line x1="1713.5" x2="1713.5" y2="1887" stroke="white" stroke-opacity="0.8"/>
<line x1="831.5" x2="831.5" y2="1887" stroke="white" stroke-opacity="0.8"/>
<line x1="2448.5" x2="2448.5" y2="1887" stroke="white" stroke-opacity="0.8"/>
<line x1="1125.5" x2="1125.5" y2="1887" stroke="white" stroke-opacity="0.8"/>
<line x1="2742.5" x2="2742.5" y2="1887" stroke="white" stroke-opacity="0.8"/>
<line x1="1419.5" x2="1419.5" y2="1887" stroke="white" stroke-opacity="0.8"/>
<line x1="3036.5" x2="3036.5" y2="1887" stroke="white" stroke-opacity="0.8"/>
<line x1="-2.86283e-08" y1="795.5" x2="3116" y2="795.5" stroke="white" stroke-opacity="0.8"/>
<line x1="-2.86283e-08" y1="1797.5" x2="3116" y2="1797.5" stroke="white" stroke-opacity="0.8"/>
<line x1="-2.86283e-08" y1="938.5" x2="3116" y2="938.5" stroke="white" stroke-opacity="0.8"/>
<line x1="-2.86283e-08" y1="652.5" x2="3116" y2="652.5" stroke="white" stroke-opacity="0.8"/>
<line x1="-2.86283e-08" y1="1654.5" x2="3116" y2="1654.5" stroke="white" stroke-opacity="0.8"/>
<line x1="-2.86283e-08" y1="366.5" x2="3116" y2="366.5" stroke="white" stroke-opacity="0.8"/>
<line x1="-2.86283e-08" y1="1368.5" x2="3116" y2="1368.5" stroke="white" stroke-opacity="0.8"/>
<line x1="-2.86283e-08" y1="509.5" x2="3116" y2="509.5" stroke="white" stroke-opacity="0.8"/>
<line x1="-2.86283e-08" y1="1511.5" x2="3116" y2="1511.5" stroke="white" stroke-opacity="0.8"/>
<line x1="-2.86283e-08" y1="223.5" x2="3116" y2="223.5" stroke="white" stroke-opacity="0.8"/>
<line x1="-2.86283e-08" y1="1225.5" x2="3116" y2="1225.5" stroke="white" stroke-opacity="0.8"/>
<line x1="-2.88754e-08" y1="79.5" x2="3116" y2="79.4999" stroke="white" stroke-opacity="0.8"/>
<line x1="-2.88754e-08" y1="1081.5" x2="3116" y2="1081.5" stroke="white" stroke-opacity="0.8"/>
</svg>
