<svg width="19" height="22" viewBox="0 0 19 22" fill="none" xmlns="http://www.w3.org/2000/svg">
<path d="M15.1716 2.789H14.7587V1.79293C14.7587 0.80282 13.958 0 12.9704 0C11.9828 0 11.1821 0.80282 11.1821 1.79293V2.789H7.28002V1.79293C7.28002 0.80282 6.47925 0 5.49168 0C4.5041 0 3.70333 0.80282 3.70333 1.79293V2.789H3.29053C1.47315 2.789 0 4.26593 0 6.08797V18.5245C0 20.3465 1.47315 21.8235 3.29053 21.8235H15.1716C16.9889 21.8235 18.4621 20.3465 18.4621 18.5245V6.08797C18.4621 4.26593 16.9889 2.789 15.1716 2.789ZM16.6828 18.5227C16.6828 19.2354 16.1067 19.8131 15.3958 19.8131H3.06628C2.35542 19.8131 1.77925 19.2354 1.77925 18.5227V9.6121C1.77925 8.89942 2.35542 8.32176 3.06628 8.32176H15.3954C16.1063 8.32176 16.6825 8.89942 16.6825 9.6121V18.5227H16.6828Z" fill="#00205B"/>
<path d="M5.1608 10.3051H4.79348C4.09677 10.3051 3.53198 10.8713 3.53198 11.5698V11.9381C3.53198 12.6365 4.09677 13.2028 4.79348 13.2028H5.1608C5.85751 13.2028 6.4223 12.6365 6.4223 11.9381V11.5698C6.4223 10.8713 5.85751 10.3051 5.1608 10.3051Z" fill="#00205B"/>
<path d="M13.6686 10.3051H13.3013C12.6046 10.3051 12.0398 10.8713 12.0398 11.5698V11.9381C12.0398 12.6365 12.6046 13.2028 13.3013 13.2028H13.6686C14.3653 13.2028 14.9301 12.6365 14.9301 11.9381V11.5698C14.9301 10.8713 14.3653 10.3051 13.6686 10.3051Z" fill="#00205B"/>
<path d="M9.41471 10.3051H9.04739C8.35068 10.3051 7.78589 10.8713 7.78589 11.5698V11.9381C7.78589 12.6365 8.35068 13.2028 9.04739 13.2028H9.41471C10.1114 13.2028 10.6762 12.6365 10.6762 11.9381V11.5698C10.6762 10.8713 10.1114 10.3051 9.41471 10.3051Z" fill="#00205B"/>
<path d="M5.1608 14.688H4.79348C4.09677 14.688 3.53198 15.2542 3.53198 15.9527V16.321C3.53198 17.0195 4.09677 17.5857 4.79348 17.5857H5.1608C5.85751 17.5857 6.4223 17.0195 6.4223 16.321V15.9527C6.4223 15.2542 5.85751 14.688 5.1608 14.688Z" fill="#00205B"/>
<path d="M13.6686 14.688H13.3013C12.6046 14.688 12.0398 15.2542 12.0398 15.9527V16.321C12.0398 17.0195 12.6046 17.5857 13.3013 17.5857H13.6686C14.3653 17.5857 14.9301 17.0195 14.9301 16.321V15.9527C14.9301 15.2542 14.3653 14.688 13.6686 14.688Z" fill="#00205B"/>
<path d="M9.41471 14.688H9.04739C8.35068 14.688 7.78589 15.2542 7.78589 15.9527V16.321C7.78589 17.0195 8.35068 17.5857 9.04739 17.5857H9.41471C10.1114 17.5857 10.6762 17.0195 10.6762 16.321V15.9527C10.6762 15.2542 10.1114 14.688 9.41471 14.688Z" fill="#00205B"/>
</svg>
