<svg width="48" height="57" viewBox="0 0 48 57" fill="none" xmlns="http://www.w3.org/2000/svg">
<path d="M38.7689 7.3936H37.7141V4.84826C37.7141 2.31817 35.6678 0.266663 33.1442 0.266663C30.6206 0.266663 28.5743 2.31817 28.5743 4.84826V7.3936H18.6032V4.84826C18.6032 2.31817 16.5569 0.266663 14.0333 0.266663C11.5096 0.266663 9.46338 2.31817 9.46338 4.84826V7.3936H8.40852C3.76443 7.3936 0 11.1677 0 15.8237V47.6036C0 52.2596 3.76443 56.0337 8.40852 56.0337H38.7689C43.413 56.0337 47.1774 52.2596 47.1774 47.6036V15.8237C47.1774 11.1677 43.413 7.3936 38.7689 7.3936ZM42.6308 47.5991C42.6308 49.4203 41.1585 50.8964 39.342 50.8964H7.83549C6.01898 50.8964 4.54664 49.4203 4.54664 47.5991V24.8291C4.54664 23.008 6.01898 21.5319 7.83549 21.5319H39.3411C41.1576 21.5319 42.6299 23.008 42.6299 24.8291V47.5991H42.6308Z" fill="white"/>
<path d="M13.1876 26.6001H12.249C10.4686 26.6001 9.02539 28.0471 9.02539 29.832V30.773C9.02539 32.5579 10.4686 34.0049 12.249 34.0049H13.1876C14.968 34.0049 16.4112 32.5579 16.4112 30.773V29.832C16.4112 28.0471 14.968 26.6001 13.1876 26.6001Z" fill="white"/>
<path d="M34.9286 26.6001H33.9899C32.2096 26.6001 30.7664 28.0471 30.7664 29.832V30.773C30.7664 32.5579 32.2096 34.0049 33.9899 34.0049H34.9286C36.7089 34.0049 38.1522 32.5579 38.1522 30.773V29.832C38.1522 28.0471 36.7089 26.6001 34.9286 26.6001Z" fill="white"/>
<path d="M24.058 26.6001H23.1193C21.339 26.6001 19.8958 28.0471 19.8958 29.832V30.773C19.8958 32.5579 21.339 34.0049 23.1193 34.0049H24.058C25.8383 34.0049 27.2816 32.5579 27.2816 30.773V29.832C27.2816 28.0471 25.8383 26.6001 24.058 26.6001Z" fill="white"/>
<path d="M13.1876 37.7996H12.249C10.4686 37.7996 9.02539 39.2465 9.02539 41.0314V41.9725C9.02539 43.7574 10.4686 45.2043 12.249 45.2043H13.1876C14.968 45.2043 16.4112 43.7574 16.4112 41.9725V41.0314C16.4112 39.2465 14.968 37.7996 13.1876 37.7996Z" fill="white"/>
<path d="M34.9286 37.7996H33.9899C32.2096 37.7996 30.7664 39.2465 30.7664 41.0314V41.9725C30.7664 43.7574 32.2096 45.2043 33.9899 45.2043H34.9286C36.7089 45.2043 38.1522 43.7574 38.1522 41.9725V41.0314C38.1522 39.2465 36.7089 37.7996 34.9286 37.7996Z" fill="white"/>
<path d="M24.058 37.7996H23.1193C21.339 37.7996 19.8958 39.2465 19.8958 41.0314V41.9725C19.8958 43.7574 21.339 45.2043 23.1193 45.2043H24.058C25.8383 45.2043 27.2816 43.7574 27.2816 41.9725V41.0314C27.2816 39.2465 25.8383 37.7996 24.058 37.7996Z" fill="white"/>
</svg>
