<svg width="366" height="87" viewBox="0 0 366 87" fill="none" xmlns="http://www.w3.org/2000/svg">
<g opacity="0.4" clip-path="url(#clip0_154_15)">
<path d="M83.4532 29.0053H18.5316V19.3422H37.0784V9.67905H64.9063V19.3422H83.4532V29.0053ZM83.4532 38.6844V48.3475H18.5468V38.6844H83.4532ZM92.7342 19.3581C87.6815 19.3581 83.5753 15.1394 83.4684 9.90192V9.69497H74.1263C68.9973 9.69497 64.8453 5.36487 64.8453 0.0159195L37.0937 0C37.0937 5.33303 32.9416 9.66313 27.8126 9.66313H18.5468V9.87008C18.4247 15.1076 14.3337 19.3263 9.28105 19.3263H0V28.9894H9.26579C14.3185 28.9894 18.4247 33.208 18.5316 38.4456V38.6525H9.26579V48.3156C14.3185 48.3156 18.4247 52.5343 18.5316 57.7718V86.9841H27.7974V57.9947H37.0784V86.9841H46.3442V57.9947H55.6253V86.9841H64.891V57.9947H74.1721V86.9841H83.4379V57.9947C83.4379 52.6457 87.5899 48.3156 92.7189 48.3156V38.6525H83.4379C83.4379 33.3195 87.5899 28.9894 92.7189 28.9894H101.985V19.3263H92.7189L92.7342 19.3581Z" fill="white"/>
</g>
<g opacity="0.4" clip-path="url(#clip1_154_15)">
<path d="M150.012 22.9971H206.001V63.0088H150.012V22.9971ZM182.019 79.0029H174.007V71.0059H182.019V79.0029ZM213.499 22.9839C209.559 22.7468 206.397 19.6507 206.028 15.751V15H205.988H150.012C150.012 19.2554 146.691 22.7072 142.501 22.9707H142V63.0088C146.362 63.0088 149.893 66.4869 149.999 70.8214V70.9927H165.996V78.9898H149.999V86.9868H206.028V78.9898H190.018V70.9927H205.988H206.028V70.2549C206.397 66.1839 209.823 62.9956 214 62.9956V22.9839H213.499Z" fill="white"/>
<path d="M166.022 46.9883H158.01V54.9854H166.022V46.9883Z" fill="white"/>
<path d="M182.006 46.9883H173.994V54.9854H182.006V46.9883Z" fill="white"/>
</g>
<g opacity="0.4" clip-path="url(#clip2_154_15)">
<path d="M339.026 15.0039H330.01V24.0072H339.026V15.0039Z" fill="white"/>
<path d="M348.027 15.0033H356.954V6H348.027H347.953H339.026V15.0033H347.953H348.027Z" fill="white"/>
<path d="M356.999 59.9759V77.9973H330.054H330.01V50.9726H330.054H338.981V59.9462V68.9347H347.983V59.9611V50.9578H356.999V59.9611V59.9759ZM294.035 71.9457V77.9825H267.016V50.9726H275.988V59.9759V68.9792H285.019H290.639H294.005H294.035V71.9605V71.9457ZM285.019 50.9578H294.005V59.9611H285.019V50.9578ZM366 68.9792V50.9578H365.941C361.388 50.9281 357.636 47.5166 357.073 43.1114V41.9693H356.999H348.072H339.026V33.0105H338.952C334.043 32.966 330.084 29.0057 330.025 24.111V24.0072H303.021V23.9775H294.035V15.0039H267.001V24.0072H276.017V33.0105H285.033V24.0072H294.005V32.9808H303.021V33.0105H330.025V42.0138H330.069V42.0583C330.01 46.953 326.065 50.8984 321.172 50.9578H321.038V59.9611H303.065V50.9578H303.006C298.053 50.9281 294.049 46.9085 294.049 41.9545H294.02V32.9957H285.004V41.9545H267.001V42.0583C266.942 46.953 262.997 50.8984 258.104 50.9578H258V77.9825H258.104C263.027 78.0418 267.001 82.0466 267.001 86.9858H294.035V86.8968C294.094 81.9724 298.098 77.9973 303.036 77.9973V68.9644H321.009V77.9973H321.142C325.665 78.0566 329.372 81.4384 329.951 85.814V87.0006H330.04H356.984C356.984 82.0317 361.017 77.9973 366 77.9973V68.9792Z" fill="white"/>
</g>
<defs>
<clipPath id="clip0_154_15">
<rect width="102" height="87" fill="white"/>
</clipPath>
<clipPath id="clip1_154_15">
<rect width="72" height="72" fill="white" transform="translate(142 15)"/>
</clipPath>
<clipPath id="clip2_154_15">
<rect width="108" height="81" fill="white" transform="translate(258 6)"/>
</clipPath>
</defs>
</svg>
