<svg width="395" height="169" viewBox="0 0 395 169" fill="none" xmlns="http://www.w3.org/2000/svg">
<g opacity="0.4" clip-path="url(#clip0_154_14)">
<path d="M215.752 125.341V134.07H198.248V125.341H189.504V116.627H198.248V125.356H215.752V116.627H224.496V125.341H215.752ZM233.255 142.799V134.07H224.511C224.511 129.282 228.386 125.399 233.169 125.341H233.255V116.612H224.511C224.511 111.795 228.444 107.883 233.27 107.883V99.1543H224.525V107.883H215.781V116.612H198.277V107.883H189.532V99.1543H180.745V107.883C185.571 107.883 189.489 111.78 189.504 116.612H180.745V125.341H180.845C185.628 125.399 189.489 129.282 189.504 134.07H180.745V142.799H172V169.001H180.745V151.543C180.745 146.711 184.663 142.799 189.504 142.799V134.085H198.248V142.814H215.752V134.085H224.496V142.814C229.337 142.814 233.255 146.725 233.255 151.557V169.015H242V142.814H233.255V142.799Z" fill="white"/>
<path d="M215.752 99.1543H198.248V107.883H215.752V99.1543Z" fill="white"/>
<path d="M189.504 64.2387H198.248V72.9676H215.752V64.2387H224.496V72.9676H215.752V81.6966H198.248V72.9676H189.504V64.253V64.2387ZM189.504 46.7663H198.248V55.4953H215.752V46.7663H224.496V55.4953H215.752V64.2243H198.248V55.4953H189.504V46.7663ZM189.504 29.294H198.248V38.023H215.752V29.294H224.496V38.023H215.752V46.7519H198.248V38.023H189.504V29.294ZM198.248 99.1402V90.4112H189.504V81.6966H198.248V90.4256H215.752V81.6966H224.496V90.4256H215.752V99.1546H224.496C224.496 94.3371 228.415 90.4256 233.255 90.4256V81.6966H224.511C224.511 76.8791 228.444 72.9676 233.27 72.9676V64.2387H224.525C224.525 59.4212 228.458 55.5097 233.284 55.5097V46.7807H224.54C224.54 41.9632 228.458 38.0517 233.299 38.0517V29.3227H224.554V20.5938H215.809V29.3227H198.306V20.5938H189.561V29.3227H180.745V38.0517C185.585 38.0517 189.504 41.9632 189.504 46.7807H180.745V55.5097C185.571 55.5097 189.489 59.4068 189.504 64.2387H180.745V72.9676C185.571 72.9676 189.489 76.8648 189.504 81.6966H180.745V90.4256C185.585 90.4256 189.504 94.3371 189.504 99.169H198.248V99.1402Z" fill="white"/>
<path d="M215.752 20.5498V11.8208H210.94V0H203.046V11.8208H198.248V20.5498H206.993H215.752Z" fill="white"/>
</g>
<g opacity="0.4" clip-path="url(#clip1_154_14)">
<path d="M66.4208 117.679V125.012H59.0272V132.333H66.4208V139.679H59.0272V147H66.4208V154.333H66.4086L59.0272 154.321V161.643L51.6336 161.655V154.321H44.2521V161.655H14.7751V154.321H22.1565V139.679H29.5136V132.333H36.9072V125.012V117.679H36.9194L44.3008 117.667V110.333H51.6701H59.0028H59.015V117.655H66.3965L66.4208 117.679ZM7.39363 161.667C7.47889 161.667 7.55197 161.667 7.63724 161.667H7.39363ZM132.537 161.655C128.639 161.461 125.533 158.284 125.509 154.382V154.345C121.441 154.345 118.152 151.083 118.127 147.048V147.012C114.059 147.012 110.77 143.75 110.746 139.715V139.679H103.365V154.333H110.746V161.655H103.352V154.333H95.971V161.655H81.1959V154.309H82.9499H88.5773V146.988H95.9588V139.667H88.5773V132.345H82.9377H81.1837V125.024H81.1959C77.1154 125.012 73.8023 121.726 73.8023 117.679H73.8145C69.7339 117.679 66.4208 114.393 66.4208 110.345C62.6205 110.345 59.4901 107.494 59.0759 103.822V103H59.0272H59.0394H44.3252V103.133C44.2521 107.12 40.9755 110.345 36.9316 110.345C36.9316 110.345 36.9316 110.551 36.9194 110.877V110.345C36.9194 114.393 33.6063 117.679 29.5258 117.679H29.538V125V125.06C29.5014 129.059 26.237 132.297 22.1931 132.321H22.1565C22.1565 132.321 22.1565 132.321 22.1443 132.321H22.1565V132.357C22.1322 136.405 18.8434 139.667 14.7873 139.667H14.7751V146.976C14.7751 146.976 14.7751 147.036 14.7751 147.145V146.964C14.7751 151.011 11.4741 154.285 7.39363 154.297V154.37C7.3449 158.381 4.05614 161.618 0 161.618H0.0121806V168.952H7.39363V161.643C11.4741 161.643 14.7751 164.929 14.7751 168.976H118.127C118.127 164.929 121.441 161.655 125.521 161.655H125.619V168.964H133V161.643H132.525L132.537 161.655Z" fill="white"/>
</g>
<g opacity="0.4" clip-path="url(#clip2_154_14)">
<path d="M320.752 108C320.752 111.719 317.775 114.734 314.086 114.779H307.253V121.558H320.752V108Z" fill="white"/>
<path d="M307.253 141.883V148.662H313.997V141.883V135.115H307.253V141.883Z" fill="white"/>
<path d="M313.997 162.222H307.253V155.443V148.664H300.499V155.443V162.222H293.755V155.443V148.664V141.885H300.488V135.117V128.338H293.733V135.117V141.885H287V148.664V155.443V162.222V169.001H293.755H300.499H307.253H313.997H320.752V162.222V155.443V148.664H313.997V155.443V162.222Z" fill="white"/>
<path d="M327.496 141.918H334.24V135.139H327.496V141.884H320.752V148.663H327.496V141.918Z" fill="white"/>
<path d="M341.006 135.139H334.251V141.918H341.006V135.139Z" fill="white"/>
<path d="M327.496 128.336H320.752H313.997V135.115H320.752H327.496V128.392H334.24V121.613H327.496V128.336Z" fill="white"/>
<path d="M341.006 121.613H334.251V128.392H341.006V121.613Z" fill="white"/>
<path d="M307.253 121.559H300.499V128.338H307.253V121.559Z" fill="white"/>
<path d="M327.496 108H320.752V114.779H327.496H334.24V108H327.496Z" fill="white"/>
<path d="M341.006 108H334.251V114.779H341.006V108Z" fill="white"/>
<path d="M347.76 108H341.006V114.779H347.76V108Z" fill="white"/>
<path d="M374.758 141.883V135.115H368.003V141.883V148.662H374.758V141.883Z" fill="white"/>
<path d="M354.515 141.884V135.139H347.76V141.918H354.504V148.663H361.259V141.884H354.515Z" fill="white"/>
<path d="M354.504 135.115H361.259H368.003V128.336H361.259H354.515V121.613H347.76V128.392H354.504V135.115Z" fill="white"/>
<path d="M347.76 135.139H341.006V141.918H347.76V135.139Z" fill="white"/>
<path d="M347.76 121.613H341.006V128.392H347.76V121.613Z" fill="white"/>
<path d="M388.267 141.885V135.117V128.338H381.524V135.117V141.885H388.256V148.664V155.443V162.222H381.501V155.443V148.664H374.758V155.443V162.222H368.003V155.443V148.664H361.259V155.443V162.222V169.001H368.003H374.758H381.501H388.256H395V162.222V155.443V148.664V141.885H388.267Z" fill="white"/>
<path d="M381.512 121.559H374.758V128.338H381.512V121.559Z" fill="white"/>
<path d="M368.003 121.558H374.746V114.779H367.914C364.225 114.734 361.248 111.719 361.248 108V121.558H368.003Z" fill="white"/>
<path d="M354.515 114.779H361.259V108H354.515H354.504H347.76V114.779H354.504H354.515Z" fill="white"/>
</g>
<defs>
<clipPath id="clip0_154_14">
<rect width="70" height="169" fill="white" transform="translate(172)"/>
</clipPath>
<clipPath id="clip1_154_14">
<rect width="133" height="66" fill="white" transform="translate(0 103)"/>
</clipPath>
<clipPath id="clip2_154_14">
<rect width="108" height="61" fill="white" transform="translate(287 108)"/>
</clipPath>
</defs>
</svg>
