<svg width="242" height="586" viewBox="0 0 242 586" fill="none" xmlns="http://www.w3.org/2000/svg">
<g opacity="0.2" clip-path="url(#clip0_34_3700)">
<path d="M151.256 434.613V464.881H90.7438V434.613H60.5125V404.396H90.7438V434.663H151.256V404.396H181.488V434.613H151.256ZM211.769 495.148V464.881H181.537C181.537 448.276 194.935 434.813 211.47 434.613H211.769V404.346H181.537C181.537 387.642 195.134 374.079 211.818 374.079V343.811H181.587V374.079H151.356V404.346H90.8434V374.079H60.6121V343.811H30.2313V374.079C46.9158 374.079 60.4626 387.592 60.5125 404.346H30.2313V434.613H30.58C47.115 434.813 60.4626 448.276 60.5125 464.881H30.2313V495.148H0V586H30.2313V525.465C30.2313 508.711 43.7781 495.148 60.5125 495.148V464.931H90.7438V495.198H151.256V464.931H181.488V495.198C198.222 495.198 211.769 508.761 211.769 525.515V586.05H242V495.198H211.769V495.148Z" fill="white"/>
<path d="M151.256 343.811H90.7438V374.079H151.256V343.811Z" fill="white"/>
<path d="M60.5124 222.742H90.7438V253.009H151.256V222.742H181.488V253.009H151.256V283.277H90.7438V253.009H60.5124V222.792V222.742ZM60.5124 162.157H90.7438V192.425H151.256V162.157H181.488V192.425H151.256V222.692H90.7438V192.425H60.5124V162.157ZM60.5124 101.573H90.7438V131.84H151.256V101.573H181.488V131.84H151.256V162.107H90.7438V131.84H60.5124V101.573ZM90.7438 343.761V313.494H60.5124V283.277H90.7438V313.544H151.256V283.277H181.488V313.544H151.256V343.811H181.488C181.488 327.107 195.034 313.544 211.769 313.544V283.277H181.537C181.537 266.572 195.134 253.009 211.818 253.009V222.742H181.587C181.587 206.037 195.184 192.474 211.868 192.474V162.207H181.637C181.637 145.503 195.184 131.94 211.918 131.94V101.672H181.687V71.405H151.455V101.672H90.943V71.405H60.7117V101.672H30.2313V131.94C46.9656 131.94 60.5124 145.503 60.5124 162.207H30.2313V192.474C46.9158 192.474 60.4626 205.988 60.5124 222.742H30.2313V253.009C46.9158 253.009 60.4626 266.522 60.5124 283.277H30.2313V313.544C46.9656 313.544 60.5124 327.107 60.5124 343.861H90.7438V343.761Z" fill="white"/>
<path d="M151.256 71.2554V40.9881H134.622V0H107.329V40.9881H90.7438V71.2554H120.975H151.256Z" fill="white"/>
</g>
<defs>
<clipPath id="clip0_34_3700">
<rect width="242" height="586" fill="white"/>
</clipPath>
</defs>
</svg>
