<svg width="23" height="17" viewBox="0 0 23 17" fill="none" xmlns="http://www.w3.org/2000/svg">
<g clip-path="url(#clip0_94_357)">
<path d="M19.404 1.42791C17.9699 0.759277 16.4467 0.271921 14.8568 0C14.6567 0.351396 14.4343 0.827258 14.2787 1.20131C12.5876 0.952053 10.9089 0.952053 9.24118 1.20131C9.08558 0.827258 8.85201 0.351396 8.66306 0C7.06207 0.271921 5.53905 0.759277 4.11477 1.42791C1.23528 5.75731 0.457095 9.98456 0.846107 14.1552C2.7583 15.5718 4.60397 16.4332 6.41726 16.9998C6.86201 16.3878 7.2623 15.7304 7.60685 15.0391C6.95093 14.7897 6.32835 14.4837 5.728 14.121C5.8836 14.0077 6.03937 13.8831 6.18386 13.7585C9.80819 15.4471 13.7339 15.4471 17.3138 13.7585C17.4694 13.8831 17.614 14.0079 17.7696 14.121C17.1693 14.4837 16.5467 14.7897 15.8908 15.0391C16.2355 15.7304 16.6358 16.3877 17.0804 16.9998C18.8925 16.4332 20.7493 15.5718 22.6515 14.1552C23.1296 9.32726 21.8944 5.13399 19.404 1.42791ZM8.10717 11.5826C7.01761 11.5826 6.12812 10.5739 6.12812 9.33859C6.12812 8.10328 6.99538 7.09458 8.10717 7.09458C9.21895 7.09458 10.1083 8.10328 10.0861 9.33859C10.0861 10.5739 9.20784 11.5826 8.10717 11.5826ZM15.4127 11.5826C14.3231 11.5826 13.4325 10.5739 13.4325 9.33859C13.4325 8.10328 14.3007 7.09458 15.4127 7.09458C16.5246 7.09458 17.4138 8.10328 17.3916 9.33859C17.3916 10.5739 16.5245 11.5826 15.4127 11.5826Z" fill="white"/>
</g>
<defs>
<clipPath id="clip0_94_357">
<rect width="22" height="17" fill="white" transform="translate(0.75293)"/>
</clipPath>
</defs>
</svg>
