<svg width="164" height="40" viewBox="0 0 164 40" fill="none" xmlns="http://www.w3.org/2000/svg">
<g clip-path="url(#clip0_33_1937)">
<path d="M141.946 21.8184V18.1816H145.62V10.9078H149.295V3.63689H152.976V10.9107H156.65V18.1845H160.325V21.8213H156.65V29.0922H152.976V36.366H149.295V29.0922H145.62V21.8213H141.946V21.8184ZM140.11 21.8184C141.126 21.8184 141.948 22.6328 141.948 23.6383V29.0893C143.981 29.0893 145.626 30.718 145.626 32.7291V36.3631H147.462C148.478 36.3631 149.301 37.1774 149.301 38.183V40H152.979V38.183C152.979 37.1774 153.801 36.3631 154.817 36.3631H156.656V32.7291C156.656 30.7209 158.302 29.0893 160.334 29.0893V23.6383C160.334 22.6328 161.16 21.8184 162.173 21.8184H164.009V18.1816H162.173C161.157 18.1816 160.334 17.3672 160.334 16.3617V10.9078C158.305 10.9078 156.656 9.27914 156.656 7.26799V3.63689H154.817C153.801 3.63689 152.979 2.82257 152.979 1.817V0H149.304V1.817C149.304 2.82257 148.478 3.63689 147.462 3.63689H145.626V7.27088C145.626 9.27914 143.981 10.9107 141.948 10.9107V16.3646C141.948 17.3701 141.123 18.1845 140.11 18.1845H138.274V21.8213H140.11V21.8184Z" fill="black"/>
<path d="M77.7968 29.9007H69.235V24.2556H77.7939V29.9036L77.7968 29.9007ZM80.6488 29.9007V15.7821C79.0705 15.7821 77.7939 14.5157 77.7939 12.9566H69.235C69.235 14.5157 67.9554 15.7792 66.3801 15.7792V18.6018H69.2321V15.7792H77.7939V21.4272H69.235C69.235 22.9805 67.9672 24.2411 66.4006 24.2498H66.3801V29.8979C67.9584 29.8979 69.235 31.1642 69.235 32.7233H77.7939V31.312C77.7939 30.5325 78.4322 29.9007 79.2198 29.8979C80.0016 29.8979 80.6341 30.5209 80.6458 31.2917V32.7204H83.4978V29.8979H80.6458L80.6488 29.9007Z" fill="black"/>
<path d="M113.403 21.4301V15.7821H121.961V21.4301H113.403ZM124.813 24.2527V15.7821C123.244 15.7821 121.97 14.5273 121.958 12.9769V12.9566H113.403V12.9653C113.397 14.5215 112.12 15.7792 110.548 15.7792V29.8979C112.123 29.8979 113.403 31.1613 113.403 32.7233H121.961V32.7146C121.967 31.1584 123.244 29.9007 124.816 29.9007V27.0782H121.964V29.9007H113.405V24.2527H124.816H124.813Z" fill="black"/>
<path d="M104.158 29.9007H98.4486V27.0782H95.5966V18.6075H98.4486V15.785H104.158V29.9036V29.9007ZM104.158 12.9566H98.4515V14.3679C98.4515 15.1474 97.8102 15.7792 97.0226 15.7821C96.2408 15.7821 95.6054 15.159 95.5966 14.3882V12.9595H92.7446V38.3743H95.5966V31.2975C95.6054 30.5267 96.2408 29.9036 97.0226 29.9036C97.8102 29.9036 98.4486 30.5354 98.4486 31.3178V32.7291H104.158C104.158 31.17 105.438 29.9065 107.013 29.9065V15.7821C105.438 15.7821 104.158 14.5157 104.158 12.9566Z" fill="black"/>
<path d="M131.202 7.31145H128.35V10.134H131.202V7.31145Z" fill="black"/>
<path d="M131.202 12.9595H128.35V32.7262H131.202V12.9595Z" fill="black"/>
<path d="M89.2074 12.9595H86.3555V32.7262H89.2074V12.9595Z" fill="black"/>
<path d="M89.2074 7.31145H86.3555V10.134H89.2074V7.31145Z" fill="black"/>
<path d="M65.6598 7.31145H51.4233V10.134H55.6837C56.4714 10.134 57.1126 10.7658 57.1126 11.5482V32.7262H59.9705V11.5482C59.9734 10.7687 60.6146 10.134 61.4023 10.134H65.6627V7.31145H65.6598Z" fill="black"/>
<path d="M17.1323 10.1369H21.3956C22.1833 10.1369 22.8246 10.7687 22.8246 11.5511V32.7262H25.6765V11.5482C25.6765 10.7687 26.3148 10.134 27.1054 10.134H31.3687V7.31145H17.1323V10.134V10.1369Z" fill="black"/>
<path d="M0 32.7262H14.2364V29.9036H4.28088C3.55179 29.9036 2.9486 29.3646 2.85197 28.6691V21.433H11.3815V18.6104H2.85197V11.5511C2.85197 10.7716 3.4903 10.1369 4.28088 10.1369H14.2364V7.31435H0V32.7262Z" fill="black"/>
<path d="M45.6755 17.2165C45.6637 17.9874 45.0313 18.6075 44.2495 18.6075H38.5514C37.7637 18.6075 37.1225 17.9758 37.1225 17.1934L37.1166 7.31145H34.2646V32.7262H37.1166L37.1225 22.8443C37.1225 22.0648 37.7608 21.4301 38.5514 21.4301H44.2495C45.0313 21.4301 45.6637 22.0503 45.6755 22.8211V32.7233H48.5274V7.31145H45.6755V17.2165Z" fill="black"/>
</g>
<defs>
<clipPath id="clip0_33_1937">
<rect width="164" height="40" fill="white"/>
</clipPath>
</defs>
</svg>
