<svg width="21" height="17" viewBox="0 0 21 17" fill="none" xmlns="http://www.w3.org/2000/svg">
<g clip-path="url(#clip0_94_353)">
<path fill-rule="evenodd" clip-rule="evenodd" d="M2.12185 7.33217C7.49169 4.94232 11.0652 3.35072 12.8567 2.58203C17.9672 0.394203 19.0383 0.0147826 19.7299 0C19.8836 0 20.2198 0.0295652 20.4504 0.221739C20.6329 0.37942 20.6809 0.581449 20.7098 0.73913C20.7386 0.896812 20.7722 1.22696 20.7386 1.47826C20.4648 4.46928 19.264 11.7226 18.654 15.0585C18.3947 16.4728 17.8855 16.9458 17.3956 16.9951C16.3197 17.0887 15.508 16.2707 14.4802 15.5809C12.8567 14.4968 11.9489 13.8168 10.3687 12.7475C8.54356 11.5206 9.72512 10.8455 10.7674 9.74174C11.0412 9.46087 15.753 5.05072 15.8442 4.66145C15.8586 4.61217 15.8586 4.42493 15.753 4.3313C15.6473 4.23768 15.4936 4.26725 15.3687 4.30174C15.2006 4.3313 12.6214 6.09536 7.60696 9.5742C6.87209 10.0916 6.20927 10.3429 5.61369 10.3281C4.95567 10.3133 3.69726 9.94869 2.74625 9.63826C1.60312 9.24898 0.68093 9.04696 0.752977 8.38667C0.801007 8.04174 1.2573 7.69681 2.11705 7.33217H2.12185Z" fill="white"/>
</g>
<defs>
<clipPath id="clip0_94_353">
<rect width="20" height="17" fill="white" transform="translate(0.75293)"/>
</clipPath>
</defs>
</svg>
