<svg width="18" height="18" viewBox="0 0 18 18" fill="none" xmlns="http://www.w3.org/2000/svg">
<g clip-path="url(#clip0_94_347)">
<path d="M16.5319 16.1639L10.8357 7.60115L10.1917 6.63265L6.11709 0.50768L5.77953 0H0.772583L1.9936 1.83608L7.41117 9.98115L8.05519 10.9484L12.4082 17.4929L12.7457 18H17.7527L16.5316 16.1639H16.5319ZM13.3411 16.8281L8.81878 10.029L8.17476 9.06108L2.92687 1.17188H5.18412L9.42808 7.5521L10.0721 8.51997L15.5984 16.8281H13.3411Z" fill="white"/>
<path d="M8.17473 9.06139L8.81875 10.0293L8.05516 10.9487L2.19737 18H0.75293L7.41114 9.98115L8.17473 9.06139Z" fill="white"/>
<path d="M17.1503 0L10.8357 7.60115L10.0724 8.51997L9.42834 7.5521L10.1916 6.63296L14.4691 1.48149L15.7055 0H17.1503Z" fill="white"/>
</g>
<defs>
<clipPath id="clip0_94_347">
<rect width="17" height="18" fill="white" transform="translate(0.75293)"/>
</clipPath>
</defs>
</svg>
