<svg width="26" height="26" viewBox="0 0 26 26" fill="none" xmlns="http://www.w3.org/2000/svg">
<g clip-path="url(#clip0_146_23369)">
<path d="M11.5552 0.00481153L11.5552 2.9043L8.66047 2.9043C10.2602 2.9043 11.5552 1.60716 11.5552 0.00481153Z" fill="black"/>
<path d="M17.335 2.89941L14.4403 2.89941L14.4403 0.00469635C14.4403 1.60228 15.7353 2.89941 17.335 2.89941Z" fill="black"/>
<path d="M8.66523 5.79419L11.5552 5.79419L11.5552 2.89947L8.66523 2.89947L8.66523 5.79419Z" fill="black"/>
<path d="M5.77509 8.6936L8.66504 8.6936L8.66504 5.79889L5.77509 5.79889L5.77509 8.6936Z" fill="black"/>
<path d="M2.88496 11.5884L5.7749 11.5884L5.7749 8.69366L2.88496 8.69366L2.88496 11.5884Z" fill="black"/>
<path d="M0.000189781 14.4878L2.89014 14.4878L2.89014 11.5931L0.000190034 11.5931L0.000189781 14.4878Z" fill="black"/>
<path d="M23.1101 14.4878L26 14.4878L26 11.5931L23.1101 11.5931L23.1101 14.4878Z" fill="black"/>
<path d="M20.2199 11.5933L23.1099 11.5933L23.1099 8.69854L20.2199 8.69854L20.2199 11.5933Z" fill="black"/>
<path d="M17.3303 8.6936L20.2202 8.6936L20.2202 5.79889L17.3303 5.79889L17.3303 8.6936Z" fill="black"/>
<path d="M14.445 5.79419L17.335 5.79419L17.335 2.89947L14.445 2.89947L14.445 5.79419Z" fill="black"/>
<path d="M11.5549 11.5932L11.5549 14.4116L11.5549 14.4879L11.5549 17.3063L11.5549 20.2058L11.5549 23.1053L11.5549 26L14.4448 26L14.4448 23.1053L14.4448 20.2058L14.4448 17.3063L14.4448 14.4879L14.4448 14.4116L14.4448 11.5932L14.4448 8.69369L14.4448 5.7942L11.5549 5.7942L11.5549 8.69369L11.5549 11.5932Z" fill="black"/>
<path d="M11.5549 2.89941L14.4448 2.89941L14.4448 -7.31945e-05L11.5549 -7.34472e-05L11.5549 2.89941Z" fill="black"/>
</g>
<defs>
<clipPath id="clip0_146_23369">
<rect width="26" height="26" fill="white" transform="translate(26 26) rotate(-180)"/>
</clipPath>
</defs>
</svg>
