<svg width="19" height="20" viewBox="0 0 19 20" fill="none" xmlns="http://www.w3.org/2000/svg">
<g clip-path="url(#clip0_47_26453)">
<path d="M18.9276 8.88477L16.8279 8.88477L16.8279 6.7886C16.8279 7.94701 17.7672 8.88477 18.9276 8.88477Z" fill="#D7FC01"/>
<path d="M16.8314 13.0703L16.8314 10.9741L18.9276 10.9741C17.7707 10.9741 16.8314 11.9119 16.8314 13.0703Z" fill="#D7FC01"/>
<path d="M14.7352 6.79205L14.7352 8.88477L16.8314 8.88477L16.8314 6.79205L14.7352 6.79205Z" fill="#D7FC01"/>
<path d="M12.6356 4.70025L12.6356 6.79297L14.7318 6.79297L14.7318 4.70025L12.6356 4.70025Z" fill="#D7FC01"/>
<path d="M10.5394 2.6065L10.5394 4.69922L12.6356 4.69922L12.6356 2.6065L10.5394 2.6065Z" fill="#D7FC01"/>
<path d="M8.43982 0.518608L8.43982 2.61133L10.536 2.61133L10.536 0.518608L8.43982 0.518608Z" fill="#D7FC01"/>
<path d="M8.43982 17.253L8.43982 19.3457L10.536 19.3457L10.536 17.253L8.43982 17.253Z" fill="#D7FC01"/>
<path d="M10.536 15.1612L10.536 17.2539L12.6322 17.2539L12.6322 15.1612L10.536 15.1612Z" fill="#D7FC01"/>
<path d="M12.6356 13.0674L12.6356 15.1602L14.7318 15.1602L14.7318 13.0674L12.6356 13.0674Z" fill="#D7FC01"/>
<path d="M14.7352 10.9776L14.7352 13.0703L16.8314 13.0703L16.8314 10.9776L14.7352 10.9776Z" fill="#D7FC01"/>
<path d="M10.536 8.88579L8.49506 8.88579L8.43981 8.88579L6.39889 8.8858L4.29926 8.8858L2.19963 8.8858L0.103454 8.8858L0.103455 10.9785L2.19963 10.9785L4.29926 10.9785L6.39889 10.9785L8.43981 10.9785L8.49506 10.9785L10.536 10.9785L12.6356 10.9785L14.7352 10.9785L14.7352 8.88579L12.6356 8.88579L10.536 8.88579Z" fill="#D7FC01"/>
<path d="M16.8314 8.8858L16.8314 10.9785L18.931 10.9785L18.931 8.8858L16.8314 8.8858Z" fill="#D7FC01"/>
</g>
<defs>
<clipPath id="clip0_47_26453">
<rect width="18.8276" height="18.8276" fill="white" transform="translate(0.103455 19.3457) rotate(-90)"/>
</clipPath>
</defs>
</svg>
