<svg width="26" height="26" viewBox="0 0 26 26" fill="none" xmlns="http://www.w3.org/2000/svg">
<g clip-path="url(#clip0_47_31233)">
<path d="M14.4448 25.9952V23.0957H17.3395C15.7398 23.0957 14.4448 24.3928 14.4448 25.9952Z" fill="black"/>
<path d="M8.66504 23.1006H11.5597V25.9953C11.5597 24.3977 10.2647 23.1006 8.66504 23.1006Z" fill="black"/>
<path d="M17.3348 20.2058H14.4448V23.1005H17.3348V20.2058Z" fill="black"/>
<path d="M20.2249 17.3064H17.335V20.2011H20.2249V17.3064Z" fill="black"/>
<path d="M23.115 14.4116H20.2251V17.3063H23.115V14.4116Z" fill="black"/>
<path d="M25.9998 11.5122H23.1099V14.4069H25.9998V11.5122Z" fill="black"/>
<path d="M2.88995 11.5122H0V14.4069H2.88995V11.5122Z" fill="black"/>
<path d="M5.78008 14.4067H2.89014V17.3015H5.78008V14.4067Z" fill="black"/>
<path d="M8.66973 17.3064H5.77979V20.2011H8.66973V17.3064Z" fill="black"/>
<path d="M11.555 20.2058H8.66504V23.1005H11.555V20.2058Z" fill="black"/>
<path d="M14.4451 14.4068V11.5884V11.5121V8.69369V5.7942V2.89472V0H11.5552V2.89472V5.7942V8.69369V11.5121V11.5884V14.4068V17.3063V20.2058H14.4451V17.3063V14.4068Z" fill="black"/>
<path d="M14.4451 23.1006H11.5552V26.0001H14.4451V23.1006Z" fill="black"/>
</g>
<defs>
<clipPath id="clip0_47_31233">
<rect width="26" height="26" fill="white"/>
</clipPath>
</defs>
</svg>
