<svg width="45" height="49" viewBox="0 0 45 49" fill="none" xmlns="http://www.w3.org/2000/svg">
<g clip-path="url(#clip0_34_2048)">
<path d="M34.9936 29.3661V34.3008H29.9945V39.2032H34.9936V44.0976H30.0027V41.2627V39.1952H25.0037V34.3008H30.0027V14.6427H35.0018V29.358L34.9936 29.3661ZM25.0037 44.0976H19.9963V39.1952H24.9954V44.0976H25.0037ZM39.9927 35.3669V14.6427H45V9.74023H29.9945V0H24.9954V4.83781C24.9954 7.54343 22.7553 9.74023 19.9881 9.74023H10.0064V14.6427H24.9954V34.2847H19.9963V29.4145H14.9973V34.317H19.9963V39.1871H14.9973V41.2547V44.0895H9.99817V39.1952H14.9973V34.2927H9.99817V29.358V29.3338V14.6427H5.00732V9.74023H0V14.6427C2.75897 14.6427 4.99908 16.8395 4.99908 19.5532V26.1355V36.0938V44.0895C7.72511 44.0895 9.93228 46.2298 9.99817 48.8869V48.9919H34.9771C34.9771 46.2863 37.2172 44.0895 39.9844 44.0895V35.3588L39.9927 35.3669Z" fill="#3952FF"/>
</g>
<defs>
<clipPath id="clip0_34_2048">
<rect width="45" height="49" fill="white"/>
</clipPath>
</defs>
</svg>
