<svg width="58" height="48" viewBox="0 0 58 48" fill="none" xmlns="http://www.w3.org/2000/svg">
<g clip-path="url(#clip0_34_7058)">
<path d="M26.3597 15.9854H21.0878V31.9883C21.0878 32.041 21.0878 32.0938 21.0878 32.1466C21.0878 32.2784 21.0617 32.4807 21.0357 32.7269C20.6796 35.3208 18.4822 37.3255 15.8158 37.3255V42.6628H10.5526V21.3226H5.27197V42.6628C8.19021 42.6628 10.5439 45.0544 10.5439 48.0088H15.8072V47.9209C15.8593 45.0192 18.1956 42.6716 21.0791 42.6716V37.3343H26.3424V42.6716H31.623V37.3343H26.351V15.9854H26.3597Z" fill="#3952FF"/>
<path d="M5.28062 15.959H10.5526V10.6217H5.28062V5.34603H15.8245V15.9678H10.5612V21.305H15.8245V15.9941H21.0964V5.34603V5.28448H20.3669C17.8134 4.92398 15.8419 2.71698 15.8245 0.0263785V0H10.5526H5.28062C5.28062 2.6994 3.30039 4.92398 0.72956 5.28448H0V5.34603V10.6217C2.91824 10.6217 5.28062 13.0134 5.28062 15.9678V15.959Z" fill="#3952FF"/>
<path d="M31.6316 10.6216H26.3596V15.9588H31.6316V10.6216Z" fill="#3952FF"/>
<path d="M57.9913 5.34603V5.28448H57.2617C54.6996 4.92398 52.7193 2.6994 52.7193 0H47.4474H42.1755V0.0263785C42.1581 2.70819 40.1866 4.92398 37.6331 5.28448H36.9035V5.34603V15.9678H31.6316V37.3343H36.8948V42.6716C39.7783 42.6716 42.1147 45.0104 42.1668 47.9209V48.0088H47.43C47.43 45.0632 49.7924 42.6716 52.702 42.6716V21.3226H47.4213V42.6628H42.1581V37.3255C39.2746 37.3255 36.9383 34.9866 36.8862 32.0762V15.9941H42.1581V21.305H47.4213V15.9678H42.1581V5.34603H52.702V10.6217H47.43V15.959H52.702C52.702 13.0134 55.0644 10.6217 57.9826 10.6217V5.34603H57.9913Z" fill="#3952FF"/>
</g>
<defs>
<clipPath id="clip0_34_7058">
<rect width="58" height="48" fill="white"/>
</clipPath>
</defs>
</svg>
