<svg width="60" height="49" viewBox="0 0 60 49" fill="none" xmlns="http://www.w3.org/2000/svg">
<g clip-path="url(#clip0_162_3419)">
<path d="M27.2685 16.3184H21.8148V32.6547C21.8148 32.7085 21.8148 32.7624 21.8148 32.8163C21.8148 32.9509 21.7878 33.1573 21.7609 33.4087C21.3925 36.0566 19.1194 38.1031 16.3611 38.1031V43.5516H10.9163V21.7668H5.45361V43.5516C8.47248 43.5516 10.9073 45.993 10.9073 49.009H16.3521V48.9192C16.406 45.9571 18.8229 43.5605 21.8058 43.5605V38.1121H27.2506V43.5605H32.7133V38.1121H27.2595V16.3184H27.2685Z" fill="#D7FC01"/>
<path d="M5.46271 16.2914H10.9164V10.843H5.46271V5.45741H16.3702V16.3004H10.9254V21.7489H16.3702V16.3273H21.8239V5.45741V5.39458H21.0692C18.4277 5.02656 16.3881 2.77358 16.3702 0.026928V0H10.9164H5.46271C5.46271 2.75563 3.4142 5.02656 0.754717 5.39458H0V5.45741V10.843C3.01887 10.843 5.46271 13.2845 5.46271 16.3004V16.2914Z" fill="#D7FC01"/>
<path d="M32.7223 10.8428H27.2686V16.2912H32.7223V10.8428Z" fill="#D7FC01"/>
<path d="M59.9908 5.45741V5.39458H59.2361C56.5856 5.02656 54.5371 2.75563 54.5371 0H49.0834H43.6296V0.026928C43.6117 2.76461 41.5721 5.02656 38.9306 5.39458H38.1759V5.45741V16.3004H32.7222V38.1121H38.1669V43.5605C41.1498 43.5605 43.5667 45.9482 43.6206 48.9192V49.009H49.0654C49.0654 46.002 51.5092 43.5605 54.5191 43.5605V21.7668H49.0564V43.5516H43.6117V38.1031C40.6287 38.1031 38.2118 35.7155 38.1579 32.7445V16.3274H43.6117V21.7489H49.0564V16.3004H43.6117V5.45741H54.5191V10.843H49.0654V16.2914H54.5191C54.5191 13.2845 56.963 10.843 59.9818 10.843V5.45741H59.9908Z" fill="#D7FC01"/>
</g>
<defs>
<clipPath id="clip0_162_3419">
<rect width="60" height="49" fill="white"/>
</clipPath>
</defs>
</svg>
