<svg width="158" height="46" viewBox="0 0 158 46" fill="none" xmlns="http://www.w3.org/2000/svg">
<g clip-path="url(#clip0_47_23089)">
<path d="M59.447 4.18117H62.3934V1.30664C62.3934 2.8935 61.0735 4.18117 59.447 4.18117Z" fill="#D7FC01"/>
<path d="M66.6789 0H62.3933V4.18113H66.6789V0Z" fill="#D7FC01"/>
<path d="M63.7326 4.18115H59.447V8.36228H63.7326V4.18115Z" fill="#D7FC01"/>
<path d="M60.7824 8.3623H56.4968V12.5434H60.7824V8.3623Z" fill="#D7FC01"/>
<path d="M57.8361 12.5435H53.5505V16.7246H57.8361V12.5435Z" fill="#D7FC01"/>
<path d="M54.8896 16.7285H50.604V20.9096H54.8896V16.7285Z" fill="#D7FC01"/>
<path d="M51.9433 20.9097H47.6577V25.0908H51.9433V20.9097Z" fill="#D7FC01"/>
<path d="M69.6253 4.18117H66.679V1.30664C66.679 2.8935 67.9988 4.18117 69.6253 4.18117Z" fill="#D7FC01"/>
<path d="M78.1965 33.4526H81.1429V36.3272C81.1429 34.7403 79.823 33.4526 78.1965 33.4526Z" fill="#D7FC01"/>
<path d="M79.8035 33.4526H76.8572V36.3272C76.8572 34.7403 78.177 33.4526 79.8035 33.4526Z" fill="#D7FC01"/>
<path d="M66.6789 0H62.3933V4.18113H66.6789V0Z" fill="#D7FC01"/>
<path d="M69.6252 4.18115H65.3396V8.36228H69.6252V4.18115Z" fill="#D7FC01"/>
<path d="M72.5717 8.3623H68.2861V12.5434H72.5717V8.3623Z" fill="#D7FC01"/>
<path d="M66.6789 41.8188H62.3933V46H66.6789V41.8188Z" fill="#D7FC01"/>
<path d="M47.6577 25.0903H50.6041V27.9649C50.6041 26.378 49.2842 25.0903 47.6577 25.0903Z" fill="#D7FC01"/>
<path d="M59.447 41.8188H62.3934V44.6934C62.3934 43.1065 61.0735 41.8188 59.447 41.8188Z" fill="#D7FC01"/>
<path d="M66.6789 41.8188H62.3933V46H66.6789V41.8188Z" fill="#D7FC01"/>
<path d="M63.7326 37.6377H59.447V41.8188H63.7326V37.6377Z" fill="#D7FC01"/>
<path d="M60.7824 33.4526H56.4968V37.6338H60.7824V33.4526Z" fill="#D7FC01"/>
<path d="M57.8361 29.2715H53.5505V33.4526H57.8361V29.2715Z" fill="#D7FC01"/>
<path d="M54.8896 25.0903H50.604V29.2715H54.8896V25.0903Z" fill="#D7FC01"/>
<path d="M51.9433 20.9097H47.6577V25.0908H51.9433V20.9097Z" fill="#D7FC01"/>
<path d="M98.5569 4.18117H95.6106V1.30664C95.6106 2.8935 96.9304 4.18117 98.5569 4.18117Z" fill="#D7FC01"/>
<path d="M95.6066 0H91.321V4.18113H95.6066V0Z" fill="#D7FC01"/>
<path d="M98.5529 4.18115H94.2673V8.36228H98.5529V4.18115Z" fill="#D7FC01"/>
<path d="M101.499 8.3623H97.2139V12.5434H101.499V8.3623Z" fill="#D7FC01"/>
<path d="M104.446 12.5435H100.16V16.7246H104.446V12.5435Z" fill="#D7FC01"/>
<path d="M107.396 16.7285H103.11V20.9096H107.396V16.7285Z" fill="#D7FC01"/>
<path d="M110.338 20.9097H106.053V25.0908H110.338V20.9097Z" fill="#D7FC01"/>
<path d="M88.3748 4.18117H91.3211V1.30664C91.3211 2.8935 90.0013 4.18117 88.3748 4.18117Z" fill="#D7FC01"/>
<path d="M95.6066 0H91.321V4.18113H95.6066V0Z" fill="#D7FC01"/>
<path d="M92.6603 4.18115H88.3748V8.36228H92.6603V4.18115Z" fill="#D7FC01"/>
<path d="M89.7141 8.3623H85.4285V12.5434H89.7141V8.3623Z" fill="#D7FC01"/>
<path d="M95.6066 41.8188H91.321V46H95.6066V41.8188Z" fill="#D7FC01"/>
<path d="M110.342 25.0903H107.396V27.9649C107.396 26.378 108.716 25.0903 110.342 25.0903Z" fill="#D7FC01"/>
<path d="M98.5569 41.8188H95.6106V44.6934C95.6106 43.1065 96.9304 41.8188 98.5569 41.8188Z" fill="#D7FC01"/>
<path d="M95.6066 41.8188H91.321V46H95.6066V41.8188Z" fill="#D7FC01"/>
<path d="M98.5529 37.6377H94.2673V41.8188H98.5529V37.6377Z" fill="#D7FC01"/>
<path d="M101.499 33.4526H97.2139V37.6338H101.499V33.4526Z" fill="#D7FC01"/>
<path d="M104.446 29.2715H100.16V33.4526H104.446V29.2715Z" fill="#D7FC01"/>
<path d="M107.396 25.0903H103.11V29.2715H107.396V25.0903Z" fill="#D7FC01"/>
<path d="M110.338 20.9097H106.053V25.0908H110.338V20.9097Z" fill="#D7FC01"/>
<path d="M81.1428 29.2715H76.8572V33.4526H81.1428V29.2715Z" fill="#D7FC01"/>
<path d="M76.8571 33.4526H72.5715V37.6338H76.8571V33.4526Z" fill="#D7FC01"/>
<path d="M85.4284 33.4526H81.1428V37.6338H85.4284V33.4526Z" fill="#D7FC01"/>
<path d="M72.5717 25.0903H68.2861V29.2715H72.5717V25.0903Z" fill="#D7FC01"/>
<path d="M89.7141 25.0903H85.4285V29.2715H89.7141V25.0903Z" fill="#D7FC01"/>
<path d="M0 21.7121H3.00457V18.7808C3.00457 20.3979 1.66144 21.7121 0 21.7121Z" fill="#D7FC01"/>
<path d="M9.00977 12.9221H12.0143V9.99072C12.0143 11.6079 10.6712 12.9221 9.00977 12.9221Z" fill="#D7FC01"/>
<path d="M15.0151 9.99463V12.926H18.0197C16.3621 12.926 15.0151 11.6156 15.0151 9.99463Z" fill="#D7FC01"/>
<path d="M18.0197 18.7847H15.0151V21.716C15.0151 20.0988 16.3583 18.7847 18.0197 18.7847Z" fill="#D7FC01"/>
<path d="M12.0143 21.7121V18.7808H9.00977C10.6673 18.7808 12.0143 20.0912 12.0143 21.7121Z" fill="#D7FC01"/>
<path d="M6.00537 18.7847V21.716H9.00994C7.35238 21.716 6.00537 20.4056 6.00537 18.7847Z" fill="#D7FC01"/>
<path d="M9.00994 24.6436H6.00537V27.5749C6.00537 25.9577 7.3485 24.6436 9.00994 24.6436Z" fill="#D7FC01"/>
<path d="M3.00457 27.5749V24.6436H0C1.65756 24.6436 3.00457 25.9539 3.00457 27.5749Z" fill="#D7FC01"/>
<path d="M15.019 9.99463H12.0144V12.926H15.019V9.99463Z" fill="#D7FC01"/>
<path d="M15.019 18.7847H12.0144V21.716H15.019V18.7847Z" fill="#D7FC01"/>
<path d="M21.0204 23.5376H18.0197H15.0151V26.4689H18.0197H21.0204H24.025V23.5376H21.0204Z" fill="#D7FC01"/>
<path d="M15.019 26.4692H12.0144V29.4006H15.019V26.4692Z" fill="#D7FC01"/>
<path d="M27.0295 26.4692H24.0249V29.4006H27.0295V26.4692Z" fill="#D7FC01"/>
<path d="M27.0295 29.4004V32.3279V35.2593H30.0302V32.3279V29.4004H27.0295Z" fill="#D7FC01"/>
<path d="M9.00977 29.4004V32.3279V35.2593H12.0143V32.3279V29.4004H9.00977Z" fill="#D7FC01"/>
<path d="M15.019 35.2593H12.0144V38.1906H15.019V35.2593Z" fill="#D7FC01"/>
<path d="M21.191 35.2593H17.216H13.241V38.1906H17.216H21.191H25.1661V35.2593H21.191Z" fill="#D7FC01"/>
<path d="M27.0295 35.2593H24.0249V38.1906H27.0295V35.2593Z" fill="#D7FC01"/>
<path d="M6.00921 18.7847H3.00464V21.716H6.00921V18.7847Z" fill="#D7FC01"/>
<path d="M6.00921 24.6436H3.00464V27.5749H6.00921V24.6436Z" fill="#D7FC01"/>
<path d="M3.00457 21.7124H0V24.6437H3.00457V21.7124Z" fill="#D7FC01"/>
<path d="M9.00994 21.7124H6.00537V24.6437H9.00994V21.7124Z" fill="#D7FC01"/>
<path d="M30.0303 21.7121H33.0348V18.7808C33.0348 20.3979 31.6917 21.7121 30.0303 21.7121Z" fill="#D7FC01"/>
<path d="M36.0354 18.7847V21.716H39.04C37.3824 21.716 36.0354 20.4056 36.0354 18.7847Z" fill="#D7FC01"/>
<path d="M39.04 24.6436H36.0354V27.5749C36.0354 25.9577 37.3785 24.6436 39.04 24.6436Z" fill="#D7FC01"/>
<path d="M33.0348 27.5749V24.6436H30.0303C31.6878 24.6436 33.0348 25.9539 33.0348 27.5749Z" fill="#D7FC01"/>
<path d="M36.0392 18.7847H33.0347V21.716H36.0392V18.7847Z" fill="#D7FC01"/>
<path d="M36.0392 24.6436H33.0347V27.5749H36.0392V24.6436Z" fill="#D7FC01"/>
<path d="M33.0348 21.7124H30.0303V24.6437H33.0348V21.7124Z" fill="#D7FC01"/>
<path d="M39.04 21.7124H36.0354V24.6437H39.04V21.7124Z" fill="#D7FC01"/>
<path d="M12.0143 12.9219H9.00977V15.8532H12.0143V12.9219Z" fill="#D7FC01"/>
<path d="M12.0143 15.8535H9.00977V18.7849H12.0143V15.8535Z" fill="#D7FC01"/>
<path d="M15.0151 12.9219V15.8532V18.7845H18.0197V15.8532V12.9219H15.0151Z" fill="#D7FC01"/>
<path d="M21.0203 12.9221H24.0248V9.99072C24.0248 11.6079 22.6817 12.9221 21.0203 12.9221Z" fill="#D7FC01"/>
<path d="M27.0295 9.99463V12.926H30.0341C28.3766 12.926 27.0295 11.6156 27.0295 9.99463Z" fill="#D7FC01"/>
<path d="M30.0302 18.7847H27.0256V21.716C27.0256 20.0988 28.3688 18.7847 30.0302 18.7847Z" fill="#D7FC01"/>
<path d="M24.0248 21.7121V18.7808H21.0203C22.6778 18.7808 24.0248 20.0912 24.0248 21.7121Z" fill="#D7FC01"/>
<path d="M27.0295 9.99463H24.0249V12.926H27.0295V9.99463Z" fill="#D7FC01"/>
<path d="M27.0295 18.7847H24.0249V21.716H27.0295V18.7847Z" fill="#D7FC01"/>
<path d="M24.0248 12.9219H21.0203V15.8532H24.0248V12.9219Z" fill="#D7FC01"/>
<path d="M24.0248 15.8535H21.0203V18.7849H24.0248V15.8535Z" fill="#D7FC01"/>
<path d="M27.0295 12.9219V15.8532V18.7845H30.0302V15.8532V12.9219H27.0295Z" fill="#D7FC01"/>
<path d="M118.96 21.7121H121.965V18.7808C121.965 20.3979 120.621 21.7121 118.96 21.7121Z" fill="#D7FC01"/>
<path d="M127.97 12.9221H130.974V9.99072C130.974 11.6079 129.631 12.9221 127.97 12.9221Z" fill="#D7FC01"/>
<path d="M133.975 9.99463V12.926H136.98C135.322 12.926 133.975 11.6156 133.975 9.99463Z" fill="#D7FC01"/>
<path d="M136.98 18.7847H133.975V21.716C133.975 20.0988 135.318 18.7847 136.98 18.7847Z" fill="#D7FC01"/>
<path d="M130.974 21.7121V18.7808H127.97C129.627 18.7808 130.974 20.0912 130.974 21.7121Z" fill="#D7FC01"/>
<path d="M124.965 18.7847V21.716H127.97C126.312 21.716 124.965 20.4056 124.965 18.7847Z" fill="#D7FC01"/>
<path d="M127.97 24.6436H124.965V27.5749C124.965 25.9577 126.308 24.6436 127.97 24.6436Z" fill="#D7FC01"/>
<path d="M121.965 27.5749V24.6436H118.96C120.618 24.6436 121.965 25.9539 121.965 27.5749Z" fill="#D7FC01"/>
<path d="M133.979 9.99463H130.974V12.926H133.979V9.99463Z" fill="#D7FC01"/>
<path d="M133.979 18.7847H130.974V21.716H133.979V18.7847Z" fill="#D7FC01"/>
<path d="M139.98 23.5376H136.98H133.975V26.4689H136.98H139.98H142.985V23.5376H139.98Z" fill="#D7FC01"/>
<path d="M133.979 26.4692H130.974V29.4006H133.979V26.4692Z" fill="#D7FC01"/>
<path d="M145.989 26.4692H142.985V29.4006H145.989V26.4692Z" fill="#D7FC01"/>
<path d="M145.99 29.4004V32.3279V35.2593H148.99V32.3279V29.4004H145.99Z" fill="#D7FC01"/>
<path d="M127.97 29.4004V32.3279V35.2593H130.974V32.3279V29.4004H127.97Z" fill="#D7FC01"/>
<path d="M133.979 35.2593H130.974V38.1906H133.979V35.2593Z" fill="#D7FC01"/>
<path d="M140.151 35.2593H136.176H132.201V38.1906H136.176H140.151H144.126V35.2593H140.151Z" fill="#D7FC01"/>
<path d="M145.989 35.2593H142.985V38.1906H145.989V35.2593Z" fill="#D7FC01"/>
<path d="M124.969 18.7847H121.965V21.716H124.969V18.7847Z" fill="#D7FC01"/>
<path d="M124.969 24.6436H121.965V27.5749H124.969V24.6436Z" fill="#D7FC01"/>
<path d="M121.965 21.7124H118.96V24.6437H121.965V21.7124Z" fill="#D7FC01"/>
<path d="M127.97 21.7124H124.965V24.6437H127.97V21.7124Z" fill="#D7FC01"/>
<path d="M148.99 21.7121H151.995V18.7808C151.995 20.3979 150.652 21.7121 148.99 21.7121Z" fill="#D7FC01"/>
<path d="M154.995 18.7847V21.716H158C156.342 21.716 154.995 20.4056 154.995 18.7847Z" fill="#D7FC01"/>
<path d="M158 24.6436H154.995V27.5749C154.995 25.9577 156.338 24.6436 158 24.6436Z" fill="#D7FC01"/>
<path d="M151.995 27.5749V24.6436H148.99C150.648 24.6436 151.995 25.9539 151.995 27.5749Z" fill="#D7FC01"/>
<path d="M154.999 18.7847H151.995V21.716H154.999V18.7847Z" fill="#D7FC01"/>
<path d="M154.999 24.6436H151.995V27.5749H154.999V24.6436Z" fill="#D7FC01"/>
<path d="M151.995 21.7124H148.99V24.6437H151.995V21.7124Z" fill="#D7FC01"/>
<path d="M158 21.7124H154.995V24.6437H158V21.7124Z" fill="#D7FC01"/>
<path d="M130.974 12.9219H127.97V15.8532H130.974V12.9219Z" fill="#D7FC01"/>
<path d="M130.974 15.8535H127.97V18.7849H130.974V15.8535Z" fill="#D7FC01"/>
<path d="M133.975 12.9219V15.8532V18.7845H136.98V15.8532V12.9219H133.975Z" fill="#D7FC01"/>
<path d="M139.98 12.9221H142.985V9.99072C142.985 11.6079 141.642 12.9221 139.98 12.9221Z" fill="#D7FC01"/>
<path d="M145.99 9.99463V12.926H148.994C147.337 12.926 145.99 11.6156 145.99 9.99463Z" fill="#D7FC01"/>
<path d="M148.99 18.7847H145.986V21.716C145.986 20.0988 147.329 18.7847 148.99 18.7847Z" fill="#D7FC01"/>
<path d="M142.985 21.7121V18.7808H139.98C141.638 18.7808 142.985 20.0912 142.985 21.7121Z" fill="#D7FC01"/>
<path d="M145.989 9.99463H142.985V12.926H145.989V9.99463Z" fill="#D7FC01"/>
<path d="M145.989 18.7847H142.985V21.716H145.989V18.7847Z" fill="#D7FC01"/>
<path d="M142.985 12.9219H139.98V15.8532H142.985V12.9219Z" fill="#D7FC01"/>
<path d="M142.985 15.8535H139.98V18.7849H142.985V15.8535Z" fill="#D7FC01"/>
<path d="M145.99 12.9219V15.8532V18.7845H148.99V15.8532V12.9219H145.99Z" fill="#D7FC01"/>
</g>
<defs>
<clipPath id="clip0_47_23089">
<rect width="158" height="46" fill="white"/>
</clipPath>
</defs>
</svg>
