<svg width="33" height="44" viewBox="0 0 33 44" fill="none" xmlns="http://www.w3.org/2000/svg">
<g clip-path="url(#clip0_47_20358)">
<path d="M9.90503 32.823C10.591 32.7031 11.3839 32.7479 12.086 32.7334V32.8331C11.9746 33.6352 11.9995 34.4474 11.9951 35.2538L9.94607 35.1931L9.91089 32.823H9.90649H9.90503Z" fill="#212121"/>
<path d="M8.27373 30.2429L11.9995 30.2227C11.9995 31.0493 11.9585 31.9164 12.086 32.7329C11.3898 32.7474 10.591 32.7026 9.90504 32.8225C9.34075 32.8529 8.7662 32.8124 8.19751 32.7878C8.24295 31.941 8.24881 31.0883 8.26933 30.2414H8.27373V30.2429Z" fill="#424242"/>
<path d="M30.4805 11.8032L32.9604 11.8177V18.107C32.9648 19.1649 33.0821 20.3918 32.8842 21.4193L32.7523 21.5046C32.0048 21.4497 31.2382 21.4901 30.4907 21.5046C30.501 18.2718 30.4951 15.0346 30.4761 11.8018H30.4805V11.8032Z" fill="#212121"/>
<path d="M0.0483391 12.0593L2.22342 12.0391C2.61476 13.5131 2.32016 17.918 2.29524 19.7028H4.22116L4.18012 23.8027H2.16919C2.15893 22.4399 2.16919 21.0656 2.19411 19.6927H0.0190253C-0.0264111 17.1564 0.0234224 14.6057 0.043942 12.0593H0.0483391Z" fill="#212121"/>
<path d="M12.0759 0.21625H22.3284C22.3284 1.05878 22.2566 1.9649 22.3592 2.79731L22.242 2.91293C21.6014 2.48227 13.505 2.7424 12.1111 2.78286L12.0657 2.76841L12.0803 0.211914L12.0759 0.21625Z" fill="#212121"/>
<path d="M20.3041 32.7993C21.5851 32.6086 24.4667 32.6794 25.7477 32.8947C25.0412 32.9742 24.3392 32.9699 23.6327 32.9699C23.6224 33.7719 23.6224 34.5783 23.6019 35.3862L21.5529 35.4368V37.5872L19.926 37.6016L19.9157 40.0728L17.8872 40.0627C17.8872 41.3764 17.9077 40.4011 17.8872 41.7148H15.7414V39.9832L13.7129 39.9977L13.7027 37.3111H11.979L11.9937 35.2518C11.9981 34.4454 11.9731 33.6274 12.0904 32.8311C14.7638 32.9106 17.6468 33.032 20.3041 32.7964L20.2997 32.8008L20.3041 32.7993Z" fill="#212121"/>
<path d="M22.3532 2.79776C23.4099 2.72261 24.4682 2.73706 25.5249 2.74718V4.95684C26.3838 4.9525 27.2779 4.89614 28.128 5.02765L28.1426 7.12314H30.4203C30.5933 8.642 30.4819 10.2707 30.4819 11.804C30.5024 15.0369 30.5068 18.274 30.4965 21.5069C31.244 21.4967 32.0106 21.4519 32.7581 21.5069C32.0003 21.582 31.2587 21.6022 30.4965 21.6123C30.4965 23.1254 30.7149 25.7368 30.4306 27.1256H30.2327C29.4955 27.2311 28.7685 27.221 28.0269 27.221C28.0225 27.893 28.0415 28.5838 27.9917 29.2558C27.9814 29.6619 28.0474 29.857 27.7777 30.1778C27.2193 30.3686 26.5524 30.1778 25.9632 30.1634L25.78 30.2992L25.7492 32.9005C24.4638 32.6852 21.5866 32.61 20.3056 32.8051C17.6468 33.0407 14.7653 32.915 12.0919 32.8398V32.7401C11.9644 31.9236 12.0054 31.0565 12.001 30.2299L8.27522 30.2501L8.21366 30.1995C7.53798 30.1692 6.90187 30.1995 6.22619 30.2645C6.10453 29.2674 6.17489 28.2254 6.18515 27.2225L4.08628 27.2022C4.06136 26.1444 4.01006 25.0215 4.16689 23.9752L4.18155 23.8047L4.22259 19.7004H2.29521C2.31573 17.9214 2.61033 13.5165 2.22339 12.0425L2.26443 11.9818C2.45204 10.4933 2.32012 8.86889 2.30986 7.36159C3.08228 7.24164 3.87522 7.3717 4.6579 7.23152L4.64764 5.03632C5.44497 4.91059 6.36103 4.99585 7.17449 5.00597C7.16423 4.2646 7.15983 3.53768 7.22579 2.80065L12.045 2.77608L12.0904 2.79053C13.4887 2.75007 21.5808 2.48994 22.2213 2.9206L22.3385 2.80499L22.3532 2.80065V2.79776Z" fill="#9E9E9E"/>
<path d="M20.4727 9.59375L22.7958 9.60387C22.7958 10.3004 22.831 11.0317 22.765 11.7239C21.9926 11.6733 21.2202 11.6285 20.4478 11.5881C20.4478 10.9219 20.4522 10.2556 20.4727 9.59375Z" fill="#212121"/>
<path d="M4.65356 5.0332C5.52272 5.1228 6.39187 5.10402 7.26689 5.09824V7.14314C6.41825 7.15759 5.4978 7.10268 4.66382 7.22841L4.65356 5.0332Z" fill="#212121"/>
<path d="M26.0232 27.2455L27.9345 27.2354C27.9242 27.9117 27.9491 28.5837 27.9902 29.26C27.9799 29.6661 28.0459 29.8612 27.7762 30.182C27.2178 30.3728 26.5509 30.182 25.9617 30.1676C26.0379 29.2008 26.0174 28.2181 26.0232 27.2512V27.2469V27.2455Z" fill="#212121"/>
<path d="M6.30107 27.2451L8.27389 27.2552C8.27389 28.1931 8.38088 29.2799 8.21233 30.1918C7.53665 30.1615 6.90054 30.1918 6.22485 30.2568C6.31133 29.2539 6.30107 28.2466 6.30107 27.2451Z" fill="#212121"/>
<path d="M20.3145 19.7534C21.1382 19.7779 21.9619 19.7837 22.7841 19.7736L22.7123 22.3301L20.3232 22.32L20.313 19.749V19.7534H20.3145Z" fill="#212121"/>
<path d="M14.7244 19.748L14.7141 22.134L14.6276 22.2699C13.9065 22.465 12.9304 22.3551 12.1726 22.3493L12.158 19.7885C13.0169 19.7986 13.8714 19.7885 14.7302 19.7538L14.7258 19.7495L14.7244 19.748Z" fill="#424242"/>
<path d="M4.18604 23.8032H6.29077L6.27025 27.1111H4.19191C4.19191 26.0634 4.22708 25.0055 4.17139 23.9694L4.18604 23.7988V23.8032Z" fill="#212121"/>
<path d="M22.3533 2.79712C23.41 2.72197 24.4683 2.73642 25.525 2.74654V4.95619L22.1759 4.96631C22.1657 4.27986 22.1862 3.60352 22.2316 2.91707L22.3489 2.80145L22.3533 2.79712Z" fill="#212121"/>
<path d="M2.3157 7.3584C3.0676 7.44366 3.8107 7.42921 4.567 7.4191L4.52596 11.9555L2.2688 11.98C2.45641 10.4915 2.3245 8.86715 2.31424 7.35984L2.3157 7.3584Z" fill="#212121"/>
<path d="M7.23609 2.80289L12.0553 2.77832L12.1007 2.79277C12.0904 3.51969 12.0699 4.24661 12.0758 4.96774L7.29325 4.98798C7.29325 4.27696 7.33868 3.50379 7.23169 2.80289H7.23609Z" fill="#212121"/>
<path d="M14.7082 7.05762L20.3306 7.07785V9.24271C18.7037 9.18201 17.0724 9.16322 15.4513 9.29762C15.274 9.27739 14.9486 9.30196 14.8416 9.15744C14.4913 8.67187 14.7199 7.63424 14.7038 7.05762H14.7082Z" fill="#212121"/>
<path d="M28.1118 21.7618L30.3793 21.7314C30.369 23.4454 30.1609 25.4556 30.435 27.1291H30.2371C29.5101 27.1147 28.789 27.1046 28.062 27.1147C28.1485 25.3299 28.1236 23.5466 28.1133 21.7618H28.1118Z" fill="#212121"/>
<path d="M14.7535 22.2944C16.6032 22.3898 18.4749 22.3349 20.3246 22.3248L20.3144 24.5995C18.4486 24.6298 16.5886 24.6298 14.7228 24.6038C14.7022 23.8321 14.6568 23.0604 14.7477 22.293H14.7521L14.7535 22.2944Z" fill="#212121"/>
<path d="M20.3145 30.2871L25.7844 30.2972L25.7536 32.8985C24.4682 32.6832 21.5911 32.608 20.3101 32.8031L20.3203 30.2929L20.3159 30.2886L20.3145 30.2871Z" fill="#424242"/>
<path d="M25.6365 5.0332C26.4646 5.04765 27.2986 5.04765 28.1267 5.0332L28.1413 7.12869H30.419C30.2314 8.57675 30.3531 10.1404 30.3575 11.5986L28.0651 11.5885C28.0446 10.1101 28.0505 8.636 28.0798 7.15759L25.6555 7.16771L25.635 5.03754V5.0332H25.6365Z" fill="#212121"/>
<path d="M22.8662 11.8338C23.7207 11.7991 24.5693 11.7933 25.4224 11.8092C25.3564 14.4148 25.4634 17.0421 25.3506 19.642C24.6954 19.6521 23.4803 19.8125 22.9058 19.5625C22.9307 16.9959 23.0069 14.3903 22.8706 11.8338H22.8662Z" fill="#424242"/>
<path d="M9.51807 11.8234L12.1358 11.7988V19.6779C11.271 19.6432 10.3872 19.6634 9.51367 19.6576V11.8248H9.51807V11.8234Z" fill="#212121"/>
<path d="M15.4558 9.29803C17.0724 9.16219 18.7037 9.18242 20.3307 9.24312L20.4728 9.59429C20.4523 10.2605 20.4479 10.9224 20.4479 11.5886C21.2203 11.6291 21.9927 11.6739 22.7652 11.7245L22.8722 11.83C23.0099 14.3908 22.9337 16.9964 22.9073 19.5587C22.1701 19.8492 21.1133 19.6338 20.3145 19.7495L20.3248 22.3204C18.4692 22.3305 16.6034 22.3811 14.7537 22.2901L14.7127 22.1296L14.7229 19.7437C13.889 19.6338 12.9788 19.683 12.136 19.6729V11.7938L12.1975 11.7086C12.1067 11.0423 12.1624 10.2995 12.1624 9.6232C12.9656 9.6232 13.8098 9.68389 14.5925 9.50325C14.827 9.35295 15.1714 9.34283 15.4514 9.29225L15.4558 9.29659V9.29803Z" fill="white"/>
<path d="M12.1668 9.62874C12.97 9.62874 13.8142 9.68943 14.5969 9.50879L14.6116 11.6939C13.8084 11.6939 13.0008 11.6794 12.202 11.7141C12.1111 11.0479 12.1668 10.3051 12.1668 9.62874Z" fill="#212121"/>
</g>
<defs>
<clipPath id="clip0_47_20358">
<rect width="33" height="43.7885" fill="white" transform="translate(0 0.211914)"/>
</clipPath>
</defs>
</svg>
