<svg width="49" height="49" viewBox="0 0 49 49" fill="none" xmlns="http://www.w3.org/2000/svg">
<g clip-path="url(#clip0_38_2531)">
<path d="M43.5446 5.46341H38.0981V0C38.0981 3.01027 40.5387 5.45443 43.5446 5.45443" fill="#3952FF"/>
<path d="M32.6427 0V5.46341H27.1873C30.2021 5.46341 32.6427 3.01926 32.6427 0Z" fill="#3952FF"/>
<path d="M21.8038 5.46341H16.3484V0C16.3484 3.01027 18.789 5.45443 21.8038 5.45443" fill="#3952FF"/>
<path d="M10.9018 0V5.46341H5.45532C8.46118 5.46341 10.9018 3.01926 10.9018 0Z" fill="#3952FF"/>
<path d="M49.0001 10.9085H43.5447V5.4541C43.5447 8.46437 45.9853 10.9085 49.0001 10.9085Z" fill="#3952FF"/>
<path d="M27.1963 48.9995V43.5361H32.6427C29.6369 43.5361 27.1963 45.9803 27.1963 48.9995Z" fill="#3952FF"/>
<path d="M21.8038 48.9995V43.5361H16.3484C19.3632 43.5361 21.8038 45.9803 21.8038 48.9995Z" fill="#3952FF"/>
<path d="M5.45541 5.4541V10.9175H0C3.01483 10.9175 5.45541 8.47336 5.45541 5.4541Z" fill="#3952FF"/>
<path d="M5.45541 10.9092H0V16.3636H5.45541V10.9092Z" fill="#3952FF"/>
<path d="M5.45541 16.3633H0V21.8177H5.45541V16.3633Z" fill="#3952FF"/>
<path d="M5.45541 21.8174H0V27.2718H5.45541V21.8174Z" fill="#3952FF"/>
<path d="M10.9107 27.2539H5.45532V32.7083H10.9107V27.2539Z" fill="#3952FF"/>
<path d="M16.3573 32.709H10.9019V38.1634H16.3573V32.709Z" fill="#3952FF"/>
<path d="M21.8126 38.0908H16.3572V43.5452H21.8126V38.0908Z" fill="#3952FF"/>
<path d="M32.6517 38.0908H27.1963V43.5452H32.6517V38.0908Z" fill="#3952FF"/>
<path d="M38.0982 32.6543H32.6428V38.1087H38.0982V32.6543Z" fill="#3952FF"/>
<path d="M27.1964 43.5361H21.741V48.9906H27.1964V43.5361Z" fill="#3952FF"/>
<path d="M43.5536 27.1914H38.0981V32.6458H43.5536V27.1914Z" fill="#3952FF"/>
<path d="M10.9107 5.4541H5.45532V10.9085H10.9107V5.4541Z" fill="#3952FF"/>
<path d="M16.3573 0H10.9019V5.45443H16.3573V0Z" fill="#3952FF"/>
<path d="M21.8126 5.4541H16.3572V10.9085H21.8126V5.4541Z" fill="#3952FF"/>
<path d="M27.1964 10.8369H21.741V16.2913H27.1964V10.8369Z" fill="#3952FF"/>
<path d="M32.6517 5.4541H27.1963V10.9085H32.6517V5.4541Z" fill="#3952FF"/>
<path d="M38.0982 0H32.6428V5.45443H38.0982V0Z" fill="#3952FF"/>
<path d="M43.5536 5.4541H38.0981V10.9085H43.5536V5.4541Z" fill="#3952FF"/>
<path d="M49.0001 10.8369H43.5447V16.2913H49.0001V10.8369Z" fill="#3952FF"/>
<path d="M49.0001 16.291H43.5447V21.7454H49.0001V16.291Z" fill="#3952FF"/>
<path d="M49.0001 21.7461H43.5447V27.2005H49.0001V21.7461Z" fill="#3952FF"/>
</g>
<defs>
<clipPath id="clip0_38_2531">
<rect width="49" height="49" fill="white"/>
</clipPath>
</defs>
</svg>
