<svg width="42" height="38" viewBox="0 0 42 38" fill="none" xmlns="http://www.w3.org/2000/svg">
<g clip-path="url(#clip0_47_33027)">
<path d="M42 21.1297V8.44909H37.8V21.1297V25.3542H33.6V29.5788H37.8069C37.8069 27.2473 39.6889 25.3542 42.0138 25.3542V21.1297H42Z" fill="#3952FF"/>
<path d="M29.4 21.1227V25.3473H33.6069V21.1227V16.8982H29.4V21.1227Z" fill="#3952FF"/>
<path d="M16.8 12.6736H25.1792V16.8982H29.3861V12.6736H25.2069V8.44908H16.8V4.2315H33.5654V8.45604H37.7723V4.2315H33.6207V0H16.8C16.8 2.3315 14.9179 4.22454 12.6 4.22454V8.44908H16.8V12.6736Z" fill="#3952FF"/>
<path d="M4.20692 12.6458H8.40692V8.42125H4.20692C4.20692 10.7527 2.32488 12.6458 0 12.6458V16.8703V29.544H4.2V16.8703V12.6458H4.20692Z" fill="#3952FF"/>
<path d="M8.39307 16.8773V21.0949H12.6V16.8773V12.6527H8.39307V16.8773Z" fill="#3952FF"/>
<path d="M25.2 25.3264H16.8208V21.1018H12.6139V25.3264H16.7931V29.5509H25.2V33.7755H8.43462V29.5509H4.23462V33.7755H8.38618V38H21.0554H25.1931V33.7824C25.1931 33.7824 25.2346 33.7824 25.2554 33.7824H29.3931V29.5579H25.1862V25.3333L25.2 25.3264Z" fill="#3952FF"/>
</g>
<defs>
<clipPath id="clip0_47_33027">
<rect width="42" height="38" fill="white"/>
</clipPath>
</defs>
</svg>
