<svg width="60" height="49" viewBox="0 0 60 49" fill="none" xmlns="http://www.w3.org/2000/svg">
<g clip-path="url(#clip0_47_27240)">
<path d="M32.7444 43.5484V43.5663L32.7354 43.5125H32.8522L32.7444 43.5394V43.5484ZM21.8296 43.5484V43.5215H21.9105L21.8296 43.5484ZM10.9148 43.5215H5.46189V38.1229H10.9148V43.5215ZM54.5471 32.6794H60V21.7925H59.9012C57.0445 21.7387 54.7268 19.4968 54.5651 16.6719V16.3491H54.5471H43.6502V10.9146H43.6682C40.6498 10.9146 38.2063 8.46639 38.2063 5.46218C35.1969 5.46218 32.7534 3.02294 32.7534 0.00976562H27.3005V0.036669C27.2825 3.03191 24.848 5.45321 21.8476 5.45321C21.8476 8.45742 19.4041 10.8967 16.3947 10.8967V16.3401H5.46189V16.4657C5.39003 19.4161 2.98248 21.7836 0.00898338 21.7836H0V32.6794H5.45291V21.7836H21.8206V27.227H27.2735V21.7656H21.8206V16.3401V10.8967H27.2825V5.45321H32.7354V10.8967H38.1973H38.1794V16.3401V21.7836H54.5381V32.6705H49.0762V38.1139H54.5381V43.5215H49.0852V38.1049H43.6323V43.5215H38.1883V43.5484L38.0626 43.5215H38.1794V32.6256H32.7444V27.227H27.2825V32.6705H32.7265V43.5304H27.2735V43.5574L27.1837 43.5304H27.2735V32.6346H21.8206V43.5304H16.3677V38.078H10.9148V32.6884H5.46189C5.46189 35.6388 3.11723 38.0332 0.188651 38.1318H0V43.5753H5.45291V48.9739H21.8206V43.5663C24.8121 43.5663 27.2376 45.9787 27.2735 48.956V48.9829C27.2735 48.9829 27.2735 49.0098 27.2735 49.0187V48.9829H32.7265L32.7444 49.0187C32.7444 46.0145 35.1789 43.5753 38.1883 43.5663V48.9739H54.5651V43.5663H60.009V38.1229C56.9995 38.1229 54.5561 35.6836 54.5561 32.6794" fill="#D7FC01"/>
<path d="M38.1795 24.491V21.7559H32.7266V24.491V27.2172H38.1795V24.491Z" fill="#D7FC01"/>
</g>
<defs>
<clipPath id="clip0_47_27240">
<rect width="60" height="49" fill="white"/>
</clipPath>
</defs>
</svg>
