<svg width="291" height="62" viewBox="0 0 291 62" fill="none" xmlns="http://www.w3.org/2000/svg">
<g clip-path="url(#clip0_40_7994)">
<path d="M77.9803 46.1506V49.32H71.7035V46.1506H68.5676V42.9865H71.7035V46.1558H77.9803V42.9865H81.1162V46.1506H77.9803ZM84.2572 52.4893V49.32H81.1213C81.1213 47.5813 82.511 46.1715 84.2262 46.1506H84.2572V42.9813H81.1213C81.1213 41.2321 82.5317 39.8119 84.2623 39.8119V36.6426H81.1265V39.8119H77.9906V42.9813H71.7138V39.8119H68.578V36.6426H65.4266V39.8119C67.1573 39.8119 68.5625 41.2269 68.5676 42.9813H65.4266V46.1506H65.4628C67.1779 46.1715 68.5625 47.5813 68.5676 49.32H65.4266V52.4893H62.2908V62.0026H65.4266V55.6639C65.4266 53.9095 66.8318 52.4893 68.5676 52.4893V49.3252H71.7035V52.4945H77.9803V49.3252H81.1162V52.4945C82.852 52.4945 84.2572 53.9147 84.2572 55.6691V62.0078H87.393V52.4945H84.2572V52.4893Z" fill="white"/>
<path d="M77.9802 36.6426H71.7034V39.8119H77.9802V36.6426Z" fill="white"/>
<path d="M68.5675 23.9639H71.7034V27.1333H77.9802V23.9639H81.1161V27.1333H77.9802V30.3026H71.7034V27.1333H68.5675V23.9691V23.9639ZM68.5675 17.62H71.7034V20.7893H77.9802V17.62H81.1161V20.7893H77.9802V23.9587H71.7034V20.7893H68.5675V17.62ZM68.5675 11.2761H71.7034V14.4454H77.9802V11.2761H81.1161V14.4454H77.9802V17.6148H71.7034V14.4454H68.5675V11.2761ZM71.7034 36.6361V33.4667H68.5675V30.3026H71.7034V33.4719H77.9802V30.3026H81.1161V33.4719H77.9802V36.6413H81.1161C81.1161 34.8921 82.5212 33.4719 84.2571 33.4719V30.3026H81.1212C81.1212 28.5535 82.5316 27.1333 84.2622 27.1333V23.9639H81.1264C81.1264 22.2148 82.5367 20.7946 84.2674 20.7946V17.6252H81.1316C81.1316 15.8761 82.5367 14.4559 84.2726 14.4559V11.2865H81.1367V8.11719H78.0009V11.2865H71.724V8.11719H68.5882V11.2865H65.4265V14.4559C67.1623 14.4559 68.5675 15.8761 68.5675 17.6252H65.4265V20.7946C67.1572 20.7946 68.5624 22.2095 68.5675 23.9639H65.4265V27.1333C67.1572 27.1333 68.5624 28.5482 68.5675 30.3026H65.4265V33.4719C67.1623 33.4719 68.5675 34.8921 68.5675 36.6465H71.7034V36.6361Z" fill="white"/>
<path d="M77.9802 8.1019V4.93255H76.2547V0.640625H73.4237V4.93255H71.7034V8.1019H74.8392H77.9802Z" fill="white"/>
</g>
<g clip-path="url(#clip1_40_7994)">
<path d="M24.1437 43.2062V45.892H21.4562V48.5734H24.1437V51.2637H21.4562V53.9451H24.1437V56.6309H24.1393L21.4562 56.6265V59.3079L18.7686 59.3123V56.6265H16.0855V59.3123H5.37069V56.6265H8.05382V51.2637H10.7281V48.5734H13.4157V45.892V43.2062H13.4201L16.1032 43.2017V40.5159H18.7819H21.4473H21.4518V43.1973H24.1349L24.1437 43.2062ZM2.68756 59.3168C2.71855 59.3168 2.74512 59.3168 2.77611 59.3168H2.68756ZM48.1768 59.3123C46.76 59.2415 45.6309 58.0778 45.6221 56.6486V56.6354C44.1432 56.6354 42.9478 55.4407 42.9389 53.9628V53.9495C41.4601 53.9495 40.2647 52.7548 40.2558 51.277V51.2637H37.5727V56.6309H40.2558V59.3123H37.5682V56.6309H34.8851V59.3123H29.5144V56.6221H30.152H32.1976V53.9407H34.8807V51.2593H32.1976V48.5778H30.1476H29.51V45.8964H29.5144C28.0312 45.892 26.8269 44.6885 26.8269 43.2062H26.8313C25.3481 43.2062 24.1437 42.0026 24.1437 40.5203C22.7623 40.5203 21.6244 39.4761 21.4739 38.131V37.8301H21.4562H21.4606H16.1121V37.8788C16.0855 39.3389 14.8945 40.5203 13.4245 40.5203C13.4245 40.5203 13.4245 40.5956 13.4201 40.715V40.5203C13.4201 42.0026 12.2158 43.2062 10.7325 43.2062H10.7369V45.8876V45.9097C10.7237 47.3743 9.53707 48.5601 8.0671 48.569H8.05382C8.05382 48.569 8.05382 48.569 8.04939 48.569H8.05382V48.5823C8.04496 50.0646 6.84951 51.2593 5.37512 51.2593H5.37069V53.9362C5.37069 53.9362 5.37069 53.9584 5.37069 53.9982V53.9318C5.37069 55.4141 4.17081 56.6132 2.68756 56.6177V56.6442C2.66985 58.1132 1.47439 59.2991 0 59.2991H0.00442761V61.9849H2.68756V59.3079C4.17081 59.3079 5.37069 60.5115 5.37069 61.9937H42.9389C42.9389 60.5115 44.1432 59.3123 45.6265 59.3123H45.6619V61.9893H48.345V59.3079H48.1724L48.1768 59.3123Z" fill="white"/>
</g>
<g clip-path="url(#clip2_40_7994)">
<path d="M115.401 40.6191C115.401 41.9228 114.325 42.9798 112.991 42.9955H110.521V45.3719H115.401V40.6191Z" fill="white"/>
<path d="M110.521 52.4975V54.8738H112.959V52.4975V50.125H110.521V52.4975Z" fill="white"/>
<path d="M112.959 59.626H110.521V57.2496V54.8732H108.078V57.2496V59.626H105.64V57.2496V54.8732V52.4969H108.074V50.1244V47.748H105.632V50.1244V52.4969H103.198V54.8732V57.2496V59.626V62.0023H105.64H108.078H110.521H112.959H115.401V59.626V57.2496V54.8732H112.959V57.2496V59.626Z" fill="white"/>
<path d="M117.839 52.5092H120.278V50.1328H117.839V52.4974H115.401V54.8738H117.839V52.5092Z" fill="white"/>
<path d="M122.724 50.1328H120.282V52.5092H122.724V50.1328Z" fill="white"/>
<path d="M117.839 47.7474H115.401H112.959V50.1238H115.401H117.839V47.767H120.278V45.3906H117.839V47.7474Z" fill="white"/>
<path d="M122.724 45.3906H120.282V47.767H122.724V45.3906Z" fill="white"/>
<path d="M110.521 45.3711H108.078V47.7475H110.521V45.3711Z" fill="white"/>
<path d="M117.839 40.6191H115.401V42.9955H117.839H120.278V40.6191H117.839Z" fill="white"/>
<path d="M122.724 40.6191H120.282V42.9955H122.724V40.6191Z" fill="white"/>
<path d="M125.166 40.6191H122.724V42.9955H125.166V40.6191Z" fill="white"/>
<path d="M134.927 52.4975V50.125H132.485V52.4975V54.8738H134.927V52.4975Z" fill="white"/>
<path d="M127.609 52.4974V50.1328H125.166V52.5092H127.604V54.8738H130.047V52.4974H127.609Z" fill="white"/>
<path d="M127.604 50.1238H130.047H132.485V47.7474H130.047H127.609V45.3906H125.166V47.767H127.604V50.1238Z" fill="white"/>
<path d="M125.166 50.1328H122.724V52.5092H125.166V50.1328Z" fill="white"/>
<path d="M125.166 45.3906H122.724V47.767H125.166V45.3906Z" fill="white"/>
<path d="M139.812 52.4969V50.1244V47.748H137.373V50.1244V52.4969H139.808V54.8732V57.2496V59.626H137.365V57.2496V54.8732H134.927V57.2496V59.626H132.485V57.2496V54.8732H130.047V57.2496V59.626V62.0023H132.485H134.927H137.365H139.808H142.246V59.626V57.2496V54.8732V52.4969H139.812Z" fill="white"/>
<path d="M137.369 45.3711H134.927V47.7475H137.369V45.3711Z" fill="white"/>
<path d="M132.485 45.3719H134.923V42.9955H132.453C131.119 42.9798 130.043 41.9228 130.043 40.6191V45.3719H132.485Z" fill="white"/>
<path d="M127.609 42.9955H130.047V40.6191H127.609H127.604H125.166V42.9955H127.604H127.609Z" fill="white"/>
</g>
<g clip-path="url(#clip3_40_7994)">
<path d="M188.647 40.9312H165.569V37.4203H172.162V33.9093H182.054V37.4203H188.647V40.9312ZM188.647 44.448V47.959H165.574V44.448H188.647ZM191.946 37.4261C190.15 37.4261 188.69 35.8933 188.652 33.9903V33.9151H185.331C183.508 33.9151 182.032 32.3418 182.032 30.3984L172.167 30.3926C172.167 32.3303 170.691 33.9035 168.868 33.9035H165.574V33.9787C165.531 35.8817 164.076 37.4145 162.28 37.4145H158.981V40.9255H162.275C164.071 40.9255 165.531 42.4583 165.569 44.3612V44.4364H162.275V47.9474C164.071 47.9474 165.531 49.4802 165.569 51.3832V61.997H168.862V51.4641H172.162V61.997H175.455V51.4641H178.755V61.997H182.048V51.4641H185.348V61.997H188.641V51.4641C188.641 49.5207 190.117 47.9474 191.941 47.9474V44.4364H188.641C188.641 42.4987 190.117 40.9255 191.941 40.9255H195.234V37.4145H191.941L191.946 37.4261Z" fill="white"/>
</g>
<g clip-path="url(#clip4_40_7994)">
<path d="M213.012 38.8601H233.255V53.3266H213.012V38.8601ZM224.584 59.1093H221.687V56.2179H224.584V59.1093ZM235.966 38.8554C234.541 38.7696 233.398 37.6502 233.265 36.2403V35.9688H233.25H213.012C213.012 37.5073 211.811 38.7553 210.296 38.8506H210.115V53.3266C211.692 53.3266 212.969 54.5841 213.007 56.1512V56.2132H218.791V59.1046H213.007V61.9959H233.265V59.1046H227.476V56.2132H233.25H233.265V55.9464C233.398 54.4745 234.637 53.3218 236.147 53.3218V38.8554H235.966Z" fill="white"/>
<path d="M218.8 47.5352H215.904V50.4265H218.8V47.5352Z" fill="white"/>
<path d="M224.579 47.5352H221.683V50.4265H224.579V47.5352Z" fill="white"/>
</g>
<g clip-path="url(#clip5_40_7994)">
<path d="M281.248 36.3828H277.988V39.5863H281.248V36.3828Z" fill="white"/>
<path d="M284.502 36.3832H287.73V33.1797H284.502H284.475H281.248V36.3832H284.475H284.502Z" fill="white"/>
<path d="M287.746 52.3846V58.7969H278.004H277.988V49.181H278.004H281.231V52.374V55.5722H284.486V52.3793V49.1758H287.746V52.3793V52.3846ZM264.981 56.6436V58.7916H255.212V49.181H258.456V52.3846V55.5881H261.721H263.753H264.97H264.981V56.6489V56.6436ZM261.721 49.1758H264.97V52.3793H261.721V49.1758ZM291 55.5881V49.1758H290.979C289.333 49.1652 287.976 47.9514 287.772 46.3839V45.9775H287.746H284.518H281.247V42.7898H281.221C279.446 42.774 278.014 41.3649 277.993 39.6233V39.5863H268.23V39.5758H264.981V36.3828H255.207V39.5863H258.466V42.7898H261.726V39.5863H264.97V42.7793H268.23V42.7898H277.993V45.9934H278.009V46.0092C277.988 47.7508 276.562 49.1547 274.792 49.1758H274.744V52.3793H268.246V49.1758H268.224C266.434 49.1652 264.986 47.735 264.986 45.9722H264.975V42.7846H261.715V45.9722H255.207V46.0092C255.185 47.7508 253.759 49.1547 251.99 49.1758H251.952V58.7916H251.99C253.77 58.8127 255.207 60.2377 255.207 61.9951H264.981V61.9634C265.002 60.2113 266.45 58.7969 268.235 58.7969V55.5828H274.733V58.7969H274.781C276.417 58.818 277.757 60.0213 277.966 61.5782V62.0004H277.998H287.74C287.74 60.2324 289.199 58.7969 291 58.7969V55.5881Z" fill="white"/>
</g>
<defs>
<clipPath id="clip0_40_7994">
<rect width="25.1022" height="61.361" fill="white" transform="translate(62.2908 0.640625)"/>
</clipPath>
<clipPath id="clip1_40_7994">
<rect width="48.345" height="24.1725" fill="white" transform="translate(0 37.8301)"/>
</clipPath>
<clipPath id="clip2_40_7994">
<rect width="39.0479" height="21.3834" fill="white" transform="translate(103.198 40.6191)"/>
</clipPath>
<clipPath id="clip3_40_7994">
<rect width="36.2588" height="31.6102" fill="white" transform="translate(158.981 30.3926)"/>
</clipPath>
<clipPath id="clip4_40_7994">
<rect width="26.0319" height="26.0319" fill="white" transform="translate(210.115 35.9688)"/>
</clipPath>
<clipPath id="clip5_40_7994">
<rect width="39.0479" height="28.8211" fill="white" transform="translate(251.952 33.1797)"/>
</clipPath>
</defs>
</svg>
