<svg width="47" height="47" viewBox="0 0 47 47" fill="none" xmlns="http://www.w3.org/2000/svg">
<g clip-path="url(#clip0_38_2687)">
<path d="M46.9999 10.466H41.771V5.22461C41.771 8.12116 44.1141 10.466 46.9999 10.466Z" fill="#3952FF"/>
<path d="M5.23754 5.22461V10.4574H0C2.89443 10.4574 5.23754 8.11254 5.23754 5.22461Z" fill="#3952FF"/>
<path d="M0 36.5342H5.22892V41.7756C5.22892 38.879 2.88581 36.5342 0 36.5342Z" fill="#3952FF"/>
<path d="M41.7625 41.7668V36.5254H47C44.1056 36.5254 41.7625 38.8702 41.7625 41.7668Z" fill="#3952FF"/>
<path d="M10.4751 5.23242H5.23755V10.4652H10.4751V5.23242Z" fill="#3952FF"/>
<path d="M20.9328 15.6641H15.6953V20.8968H20.9328V15.6641Z" fill="#3952FF"/>
<path d="M31.2959 15.6465H26.0583V20.8792H31.2959V15.6465Z" fill="#3952FF"/>
<path d="M15.7041 26.1729H10.4666V31.4056H15.7041V26.1729Z" fill="#3952FF"/>
<path d="M36.5852 26.1729H31.3477V31.4056H36.5852V26.1729Z" fill="#3952FF"/>
<path d="M20.9328 31.3965H15.6953V36.6292H20.9328V31.3965Z" fill="#3952FF"/>
<path d="M26.1704 31.3965H20.9329V36.6292H26.1704V31.3965Z" fill="#3952FF"/>
<path d="M31.3476 31.3965H26.1101V36.6292H31.3476V31.3965Z" fill="#3952FF"/>
<path d="M41.771 5.23242H36.5334V10.4652H41.771V5.23242Z" fill="#3952FF"/>
<path d="M10.4665 36.5342H5.229V41.7669H10.4665V36.5342Z" fill="#3952FF"/>
<path d="M41.771 36.5342H36.5334V41.7669H41.771V36.5342Z" fill="#3952FF"/>
<path d="M31.408 0H31.296H26.1705H20.9416H15.704H10.4751V5.23276H15.704H20.9416H26.1705H31.296H31.408H36.525V0H31.408Z" fill="#3952FF"/>
<path d="M5.22892 31.4141V31.302V26.1727V20.94V15.6986V10.4658H0V15.6986V20.94V26.1727V31.302V31.4141V36.5348H5.22892V31.4141Z" fill="#3952FF"/>
<path d="M46.9914 31.4141V31.302V26.1813V20.94V15.7072V10.4658H41.7625V15.7072V20.94V26.1813V31.302V31.4141V36.5434H46.9914V31.4141Z" fill="#3952FF"/>
<path d="M31.408 41.7676H31.296H26.1705H20.9416H15.704H10.4751V47.0003H15.704H20.9416H26.1705H31.296H31.408H36.525V41.7676H31.408Z" fill="#3952FF"/>
</g>
<defs>
<clipPath id="clip0_38_2687">
<rect width="47" height="47" fill="white"/>
</clipPath>
</defs>
</svg>
