<svg width="60" height="49" viewBox="0 0 60 49" fill="none" xmlns="http://www.w3.org/2000/svg">
<g clip-path="url(#clip0_34_3684)">
<path d="M49.0901 16.3363H10.9009V10.8939H21.8108V5.45142H38.1802V10.8939H49.0901V16.3363ZM49.0901 21.7877V27.2302H10.9099V21.7877H49.0901ZM54.5495 10.9028C51.5774 10.9028 49.1619 8.52681 49.0991 5.57694V5.46038H43.6037C40.5867 5.46038 38.1443 3.02159 38.1443 0.00896615L21.8198 0C21.8198 3.00366 19.3774 5.44245 16.3604 5.44245H10.9099V5.55901C10.8381 8.50887 8.43161 10.8849 5.45944 10.8849H0V16.3274H5.45046C8.42263 16.3274 10.8381 18.7034 10.9009 21.6532V21.7698H5.45046V27.2123C8.42263 27.2123 10.8381 29.5883 10.9009 32.5382V48.991H16.3514V32.6637H21.8108V48.991H27.2613V32.6637H32.7207V48.991H38.1712V32.6637H43.6307V48.991H49.0811V32.6637C49.0811 29.6511 51.5235 27.2123 54.5406 27.2123V21.7698H49.0811C49.0811 18.7661 51.5235 16.3274 54.5406 16.3274H59.991V10.8849H54.5406L54.5495 10.9028Z" fill="#D7FC01"/>
</g>
<defs>
<clipPath id="clip0_34_3684">
<rect width="60" height="49" fill="white"/>
</clipPath>
</defs>
</svg>
